<?xml version="1.0" encoding="UTF-8" standalone="no"?>
<!DOCTYPE svg PUBLIC "-//W3C//DTD SVG 1.1//EN"
 "http://www.w3.org/Graphics/SVG/1.1/DTD/svg11.dtd">
<!-- Generated by graphviz version 2.47.0 (20210316.0004)
 -->
<!-- Title: dependencies Pages: 1 -->
<svg width="7385pt" height="363pt"
 viewBox="0.00 0.00 7385.00 363.00" xmlns="http://www.w3.org/2000/svg" xmlns:xlink="http://www.w3.org/1999/xlink">
<g id="graph0" class="graph" transform="scale(1 1) rotate(0) translate(4 359)">
<title>dependencies</title>
<polygon fill="white" stroke="transparent" points="-4,4 -4,-359 7381,-359 7381,4 -4,4"/>
<text text-anchor="start" x="3667.51" y="-42.4" font-family="Times-12" font-weight="bold" font-size="14.00">Legend</text>
<polygon fill="#ffffb3" stroke="transparent" points="3454.5,-10 3454.5,-30 3474.5,-30 3474.5,-10 3454.5,-10"/>
<text text-anchor="start" x="3478.13" y="-15.4" font-family="Times-12" font-size="14.00"> &#160;Declarations</text>
<polygon fill="#8dd3c7" stroke="transparent" points="3567.5,-10 3567.5,-30 3587.5,-30 3587.5,-10 3567.5,-10"/>
<text text-anchor="start" x="3591.23" y="-15.4" font-family="Times-12" font-size="14.00"> &#160;Module</text>
<polygon fill="#80b1d3" stroke="transparent" points="3653.5,-10 3653.5,-30 3673.5,-30 3673.5,-10 3653.5,-10"/>
<text text-anchor="start" x="3677.28" y="-15.4" font-family="Times-12" font-size="14.00"> &#160;Bootstrap</text>
<polygon fill="#fdb462" stroke="transparent" points="3750.5,-10 3750.5,-30 3770.5,-30 3770.5,-10 3750.5,-10"/>
<text text-anchor="start" x="3774.17" y="-15.4" font-family="Times-12" font-size="14.00"> &#160;Providers</text>
<polygon fill="#fb8072" stroke="transparent" points="3846.5,-10 3846.5,-30 3866.5,-30 3866.5,-10 3846.5,-10"/>
<text text-anchor="start" x="3870.23" y="-15.4" font-family="Times-12" font-size="14.00"> &#160;Exports</text>
<g id="clust1" class="cluster">
<title>cluster_AppModule</title>
<polygon fill="none" stroke="black" stroke-dasharray="1,5" points="8,-70 8,-347 5109,-347 5109,-70 8,-70"/>
</g>
<g id="clust2" class="cluster">
<title>cluster_AppModule_declarations</title>
<polygon fill="none" stroke="black" points="1590,-143 1590,-195 4124,-195 4124,-143 1590,-143"/>
</g>
<g id="clust18" class="cluster">
<title>cluster_AppModule_imports</title>
<polygon fill="none" stroke="black" points="4132,-78 4132,-195 5101,-195 5101,-78 4132,-78"/>
</g>
<g id="clust20" class="cluster">
<title>cluster_AppModule_bootstrap</title>
<polygon fill="none" stroke="black" points="2186,-287 2186,-339 2310,-339 2310,-287 2186,-287"/>
</g>
<g id="clust21" class="cluster">
<title>cluster_AppModule_providers</title>
<polygon fill="none" stroke="black" points="16,-143 16,-195 1448,-195 1448,-143 16,-143"/>
</g>
<g id="clust22" class="cluster">
<title>cluster_AppRoutingModule</title>
<polygon fill="none" stroke="black" stroke-dasharray="1,5" points="5117,-135 5117,-203 5453,-203 5453,-135 5117,-135"/>
</g>
<g id="clust24" class="cluster">
<title>cluster_AppRoutingModule_imports</title>
<polygon fill="none" stroke="black" points="5251,-143 5251,-195 5445,-195 5445,-143 5251,-143"/>
</g>
<g id="clust25" class="cluster">
<title>cluster_AppRoutingModule_exports</title>
<polygon fill="none" stroke="black" points="5125,-143 5125,-195 5243,-195 5243,-143 5125,-143"/>
</g>
<g id="clust28" class="cluster">
<title>cluster_FrameworkModule</title>
<polygon fill="none" stroke="black" stroke-dasharray="1,5" points="5117,-211 5117,-279 7369,-279 7369,-211 5117,-211"/>
</g>
<g id="clust29" class="cluster">
<title>cluster_FrameworkModule_declarations</title>
<polygon fill="none" stroke="black" points="6378,-219 6378,-271 7225,-271 7225,-219 6378,-219"/>
</g>
<g id="clust35" class="cluster">
<title>cluster_FrameworkModule_imports</title>
<polygon fill="none" stroke="black" points="7233,-219 7233,-271 7361,-271 7361,-219 7233,-219"/>
</g>
<g id="clust36" class="cluster">
<title>cluster_FrameworkModule_exports</title>
<polygon fill="none" stroke="black" points="5125,-219 5125,-271 6370,-271 6370,-219 5125,-219"/>
</g>
<g id="clust39" class="cluster">
<title>cluster_PrimengModule</title>
<polygon fill="none" stroke="black" stroke-dasharray="1,5" points="5461,-135 5461,-203 5849,-203 5849,-135 5461,-135"/>
</g>
<g id="clust41" class="cluster">
<title>cluster_PrimengModule_imports</title>
<polygon fill="none" stroke="black" points="5661,-143 5661,-195 5841,-195 5841,-143 5661,-143"/>
</g>
<g id="clust42" class="cluster">
<title>cluster_PrimengModule_exports</title>
<polygon fill="none" stroke="black" points="5469,-143 5469,-195 5653,-195 5653,-143 5469,-143"/>
</g>
<!-- AppComponent -->
<g id="node1" class="node">
<title>AppComponent</title>
<polygon fill="#ffffb3" stroke="black" points="3624.94,-187 3519.06,-187 3519.06,-151 3624.94,-151 3624.94,-187"/>
<text text-anchor="middle" x="3572" y="-164.8" font-family="Times,serif" font-size="14.00">AppComponent</text>
</g>
<!-- AppModule -->
<g id="node16" class="node">
<title>AppModule</title>
<polygon fill="#8dd3c7" stroke="black" points="2289.66,-263 2286.66,-267 2265.66,-267 2262.66,-263 2206.34,-263 2206.34,-227 2289.66,-227 2289.66,-263"/>
<text text-anchor="middle" x="2248" y="-240.8" font-family="Times,serif" font-size="14.00">AppModule</text>
</g>
<!-- AppComponent&#45;&gt;AppModule -->
<g id="edge1" class="edge">
<title>AppComponent&#45;&gt;AppModule</title>
<path fill="none" stroke="black" d="M3572,-187.29C3572,-209.21 3572,-243 3572,-243 3572,-243 2299.81,-243 2299.81,-243"/>
<polygon fill="black" stroke="black" points="2299.81,-239.5 2289.81,-243 2299.81,-246.5 2299.81,-239.5"/>
</g>
<!-- DiscoverComponent -->
<g id="node2" class="node">
<title>DiscoverComponent</title>
<polygon fill="#ffffb3" stroke="black" points="3500.86,-187 3369.14,-187 3369.14,-151 3500.86,-151 3500.86,-187"/>
<text text-anchor="middle" x="3435" y="-164.8" font-family="Times,serif" font-size="14.00">DiscoverComponent</text>
</g>
<!-- DiscoverComponent&#45;&gt;AppModule -->
<g id="edge2" class="edge">
<title>DiscoverComponent&#45;&gt;AppModule</title>
<path fill="none" stroke="black" d="M3435,-187.17C3435,-208.5 3435,-241 3435,-241 3435,-241 2299.9,-241 2299.9,-241"/>
<polygon fill="black" stroke="black" points="2299.9,-237.5 2289.9,-241 2299.9,-244.5 2299.9,-237.5"/>
</g>
<!-- PanelPopoutComponent -->
<g id="node3" class="node">
<title>PanelPopoutComponent</title>
<polygon fill="#ffffb3" stroke="black" points="3351.11,-187 3198.89,-187 3198.89,-151 3351.11,-151 3351.11,-187"/>
<text text-anchor="middle" x="3275" y="-164.8" font-family="Times,serif" font-size="14.00">PanelPopoutComponent</text>
</g>
<!-- PanelPopoutComponent&#45;&gt;AppModule -->
<g id="edge3" class="edge">
<title>PanelPopoutComponent&#45;&gt;AppModule</title>
<path fill="none" stroke="black" d="M3275,-187.03C3275,-207.77 3275,-239 3275,-239 3275,-239 2299.85,-239 2299.85,-239"/>
<polygon fill="black" stroke="black" points="2299.85,-235.5 2289.85,-239 2299.85,-242.5 2299.85,-235.5"/>
</g>
<!-- ReportComponent -->
<g id="node4" class="node">
<title>ReportComponent</title>
<polygon fill="#ffffb3" stroke="black" points="3180.94,-187 3061.06,-187 3061.06,-151 3180.94,-151 3180.94,-187"/>
<text text-anchor="middle" x="3121" y="-164.8" font-family="Times,serif" font-size="14.00">ReportComponent</text>
</g>
<!-- ReportComponent&#45;&gt;AppModule -->
<g id="edge4" class="edge">
<title>ReportComponent&#45;&gt;AppModule</title>
<path fill="none" stroke="black" d="M3121,-187.22C3121,-207.37 3121,-237 3121,-237 3121,-237 2299.81,-237 2299.81,-237"/>
<polygon fill="black" stroke="black" points="2299.81,-233.5 2289.81,-237 2299.81,-240.5 2299.81,-233.5"/>
</g>
<!-- HomeComponent -->
<g id="node5" class="node">
<title>HomeComponent</title>
<polygon fill="#ffffb3" stroke="black" points="3043.55,-187 2928.45,-187 2928.45,-151 3043.55,-151 3043.55,-187"/>
<text text-anchor="middle" x="2986" y="-164.8" font-family="Times,serif" font-size="14.00">HomeComponent</text>
</g>
<!-- HomeComponent&#45;&gt;AppModule -->
<g id="edge5" class="edge">
<title>HomeComponent&#45;&gt;AppModule</title>
<path fill="none" stroke="black" d="M2986,-187.03C2986,-206.58 2986,-235 2986,-235 2986,-235 2299.79,-235 2299.79,-235"/>
<polygon fill="black" stroke="black" points="2299.79,-231.5 2289.79,-235 2299.79,-238.5 2299.79,-231.5"/>
</g>
<!-- AutomobileComponent -->
<g id="node6" class="node">
<title>AutomobileComponent</title>
<polygon fill="#ffffb3" stroke="black" points="2910.22,-187 2761.78,-187 2761.78,-151 2910.22,-151 2910.22,-187"/>
<text text-anchor="middle" x="2836" y="-164.8" font-family="Times,serif" font-size="14.00">AutomobileComponent</text>
</g>
<!-- AutomobileComponent&#45;&gt;AppModule -->
<g id="edge6" class="edge">
<title>AutomobileComponent&#45;&gt;AppModule</title>
<path fill="none" stroke="black" d="M2836,-187.17C2836,-206.09 2836,-233 2836,-233 2836,-233 2299.82,-233 2299.82,-233"/>
<polygon fill="black" stroke="black" points="2299.82,-229.5 2289.82,-233 2299.82,-236.5 2299.82,-229.5"/>
</g>
<!-- AgricultureComponent -->
<g id="node7" class="node">
<title>AgricultureComponent</title>
<polygon fill="#ffffb3" stroke="black" points="2743.86,-187 2598.14,-187 2598.14,-151 2743.86,-151 2743.86,-187"/>
<text text-anchor="middle" x="2671" y="-164.8" font-family="Times,serif" font-size="14.00">AgricultureComponent</text>
</g>
<!-- AgricultureComponent&#45;&gt;AppModule -->
<g id="edge7" class="edge">
<title>AgricultureComponent&#45;&gt;AppModule</title>
<path fill="none" stroke="black" d="M2671,-187.27C2671,-205.56 2671,-231 2671,-231 2671,-231 2299.72,-231 2299.72,-231"/>
<polygon fill="black" stroke="black" points="2299.72,-227.5 2289.72,-231 2299.72,-234.5 2299.72,-227.5"/>
</g>
<!-- PhysicsComponent -->
<g id="node8" class="node">
<title>PhysicsComponent</title>
<polygon fill="#ffffb3" stroke="black" points="2580.11,-187 2455.89,-187 2455.89,-151 2580.11,-151 2580.11,-187"/>
<text text-anchor="middle" x="2518" y="-164.8" font-family="Times,serif" font-size="14.00">PhysicsComponent</text>
</g>
<!-- PhysicsComponent&#45;&gt;AppModule -->
<g id="edge8" class="edge">
<title>PhysicsComponent&#45;&gt;AppModule</title>
<path fill="none" stroke="black" d="M2518,-187C2518,-204.68 2518,-229 2518,-229 2518,-229 2299.89,-229 2299.89,-229"/>
<polygon fill="black" stroke="black" points="2299.89,-225.5 2289.89,-229 2299.89,-232.5 2299.89,-225.5"/>
</g>
<!-- PhysicsSyllabusComponent -->
<g id="node9" class="node">
<title>PhysicsSyllabusComponent</title>
<polygon fill="#ffffb3" stroke="black" points="2438.33,-187 2265.67,-187 2265.67,-151 2438.33,-151 2438.33,-187"/>
<text text-anchor="middle" x="2352" y="-164.8" font-family="Times,serif" font-size="14.00">PhysicsSyllabusComponent</text>
</g>
<!-- PhysicsSyllabusComponent&#45;&gt;AppModule -->
<g id="edge9" class="edge">
<title>PhysicsSyllabusComponent&#45;&gt;AppModule</title>
<path fill="none" stroke="black" d="M2277.83,-187.01C2277.83,-187.01 2277.83,-216.85 2277.83,-216.85"/>
<polygon fill="black" stroke="black" points="2274.33,-216.85 2277.83,-226.85 2281.33,-216.85 2274.33,-216.85"/>
</g>
<!-- PhysicsConceptGraphComponent -->
<g id="node10" class="node">
<title>PhysicsConceptGraphComponent</title>
<polygon fill="#ffffb3" stroke="black" points="2247.75,-187 2042.25,-187 2042.25,-151 2247.75,-151 2247.75,-187"/>
<text text-anchor="middle" x="2145" y="-164.8" font-family="Times,serif" font-size="14.00">PhysicsConceptGraphComponent</text>
</g>
<!-- PhysicsConceptGraphComponent&#45;&gt;AppModule -->
<g id="edge10" class="edge">
<title>PhysicsConceptGraphComponent&#45;&gt;AppModule</title>
<path fill="none" stroke="black" d="M2227.02,-187.01C2227.02,-187.01 2227.02,-216.85 2227.02,-216.85"/>
<polygon fill="black" stroke="black" points="2223.52,-216.85 2227.02,-226.85 2230.52,-216.85 2223.52,-216.85"/>
</g>
<!-- KnowledgeGraphComponent -->
<g id="node11" class="node">
<title>KnowledgeGraphComponent</title>
<polygon fill="#ffffb3" stroke="black" points="2024.35,-187 1843.65,-187 1843.65,-151 2024.35,-151 2024.35,-187"/>
<text text-anchor="middle" x="1934" y="-164.8" font-family="Times,serif" font-size="14.00">KnowledgeGraphComponent</text>
</g>
<!-- KnowledgeGraphComponent&#45;&gt;AppModule -->
<g id="edge11" class="edge">
<title>KnowledgeGraphComponent&#45;&gt;AppModule</title>
<path fill="none" stroke="black" d="M1934,-187.17C1934,-206.09 1934,-233 1934,-233 1934,-233 2196.3,-233 2196.3,-233"/>
<polygon fill="black" stroke="black" points="2196.3,-236.5 2206.3,-233 2196.3,-229.5 2196.3,-236.5"/>
</g>
<!-- ClassicalMechanicsGraphComponent -->
<g id="node12" class="node">
<title>ClassicalMechanicsGraphComponent</title>
<polygon fill="#ffffb3" stroke="black" points="1825.99,-187 1598.01,-187 1598.01,-151 1825.99,-151 1825.99,-187"/>
<text text-anchor="middle" x="1712" y="-164.8" font-family="Times,serif" font-size="14.00">ClassicalMechanicsGraphComponent</text>
</g>
<!-- ClassicalMechanicsGraphComponent&#45;&gt;AppModule -->
<g id="edge12" class="edge">
<title>ClassicalMechanicsGraphComponent&#45;&gt;AppModule</title>
<path fill="none" stroke="black" d="M1712,-187.03C1712,-207.77 1712,-239 1712,-239 1712,-239 2195.94,-239 2195.94,-239"/>
<polygon fill="black" stroke="black" points="2195.94,-242.5 2205.94,-239 2195.94,-235.5 2195.94,-242.5"/>
</g>
<!-- ChemistryComponent -->
<g id="node13" class="node">
<title>ChemistryComponent</title>
<polygon fill="#ffffb3" stroke="black" points="4115.66,-187 3976.34,-187 3976.34,-151 4115.66,-151 4115.66,-187"/>
<text text-anchor="middle" x="4046" y="-164.8" font-family="Times,serif" font-size="14.00">ChemistryComponent</text>
</g>
<!-- ChemistryComponent&#45;&gt;AppModule -->
<g id="edge13" class="edge">
<title>ChemistryComponent&#45;&gt;AppModule</title>
<path fill="none" stroke="black" d="M4046,-187.32C4046,-210.66 4046,-248 4046,-248 4046,-248 2299.8,-248 2299.8,-248"/>
<polygon fill="black" stroke="black" points="2299.8,-244.5 2289.8,-248 2299.8,-251.5 2299.8,-244.5"/>
</g>
<!-- MathComponent -->
<g id="node14" class="node">
<title>MathComponent</title>
<polygon fill="#ffffb3" stroke="black" points="3958.38,-187 3847.62,-187 3847.62,-151 3958.38,-151 3958.38,-187"/>
<text text-anchor="middle" x="3903" y="-164.8" font-family="Times,serif" font-size="14.00">MathComponent</text>
</g>
<!-- MathComponent&#45;&gt;AppModule -->
<g id="edge14" class="edge">
<title>MathComponent&#45;&gt;AppModule</title>
<path fill="none" stroke="black" d="M3903,-187.25C3903,-210.02 3903,-246 3903,-246 3903,-246 2299.74,-246 2299.74,-246"/>
<polygon fill="black" stroke="black" points="2299.74,-242.5 2289.74,-246 2299.74,-249.5 2299.74,-242.5"/>
</g>
<!-- DependencyGraphComponent -->
<g id="node15" class="node">
<title>DependencyGraphComponent</title>
<polygon fill="#ffffb3" stroke="black" points="3829.28,-187 3642.72,-187 3642.72,-151 3829.28,-151 3829.28,-187"/>
<text text-anchor="middle" x="3736" y="-164.8" font-family="Times,serif" font-size="14.00">DependencyGraphComponent</text>
</g>
<!-- DependencyGraphComponent&#45;&gt;AppModule -->
<g id="edge15" class="edge">
<title>DependencyGraphComponent&#45;&gt;AppModule</title>
<path fill="none" stroke="black" d="M3736,-187.01C3736,-209.49 3736,-245 3736,-245 3736,-245 2299.74,-245 2299.74,-245"/>
<polygon fill="black" stroke="black" points="2299.74,-241.5 2289.74,-245 2299.74,-248.5 2299.74,-241.5"/>
</g>
<!-- AppComponent  -->
<g id="node25" class="node">
<title>AppComponent </title>
<polygon fill="#80b1d3" stroke="black" points="2302.44,-331 2193.56,-331 2193.56,-295 2302.44,-295 2302.44,-331"/>
<text text-anchor="middle" x="2248" y="-308.8" font-family="Times,serif" font-size="14.00">AppComponent </text>
</g>
<!-- AppModule&#45;&gt;AppComponent  -->
<g id="edge24" class="edge">
<title>AppModule&#45;&gt;AppComponent </title>
<path fill="none" stroke="black" stroke-dasharray="1,5" d="M2248,-263.22C2248,-263.22 2248,-284.73 2248,-284.73"/>
<polygon fill="black" stroke="black" points="2244.5,-284.73 2248,-294.73 2251.5,-284.73 2244.5,-284.73"/>
</g>
<!-- BrowserModule -->
<g id="node17" class="node">
<title>BrowserModule</title>
<polygon fill="#8dd3c7" stroke="black" points="4517.47,-122 4514.47,-126 4493.47,-126 4490.47,-122 4410.53,-122 4410.53,-86 4517.47,-86 4517.47,-122"/>
<text text-anchor="middle" x="4464" y="-99.8" font-family="Times,serif" font-size="14.00">BrowserModule</text>
</g>
<!-- BrowserModule&#45;&gt;AppModule -->
<g id="edge16" class="edge">
<title>BrowserModule&#45;&gt;AppModule</title>
<path fill="none" stroke="black" d="M4464,-122.15C4464,-161.67 4464,-252 4464,-252 4464,-252 2299.8,-252 2299.8,-252"/>
<polygon fill="black" stroke="black" points="2299.8,-248.5 2289.8,-252 2299.8,-255.5 2299.8,-248.5"/>
</g>
<!-- BrowserAnimationsModule -->
<g id="node18" class="node">
<title>BrowserAnimationsModule</title>
<polygon fill="#8dd3c7" stroke="black" points="4708.3,-122 4705.3,-126 4684.3,-126 4681.3,-122 4535.7,-122 4535.7,-86 4708.3,-86 4708.3,-122"/>
<text text-anchor="middle" x="4622" y="-99.8" font-family="Times,serif" font-size="14.00">BrowserAnimationsModule</text>
</g>
<!-- BrowserAnimationsModule&#45;&gt;AppModule -->
<g id="edge17" class="edge">
<title>BrowserAnimationsModule&#45;&gt;AppModule</title>
<path fill="none" stroke="black" d="M4622,-122.09C4622,-161.99 4622,-254 4622,-254 4622,-254 2299.71,-254 2299.71,-254"/>
<polygon fill="black" stroke="black" points="2299.71,-250.5 2289.71,-254 2299.71,-257.5 2299.71,-250.5"/>
</g>
<!-- HttpClientModule -->
<g id="node19" class="node">
<title>HttpClientModule</title>
<polygon fill="#8dd3c7" stroke="black" points="4258.16,-122 4255.16,-126 4234.16,-126 4231.16,-122 4139.84,-122 4139.84,-86 4258.16,-86 4258.16,-122"/>
<text text-anchor="middle" x="4199" y="-99.8" font-family="Times,serif" font-size="14.00">HttpClientModule</text>
</g>
<!-- HttpClientModule&#45;&gt;AppModule -->
<g id="edge18" class="edge">
<title>HttpClientModule&#45;&gt;AppModule</title>
<path fill="none" stroke="black" d="M4139.72,-104C3813.73,-104 2253.86,-104 2253.86,-104 2253.86,-104 2253.86,-216.86 2253.86,-216.86"/>
<polygon fill="black" stroke="black" points="2250.36,-216.86 2253.86,-226.86 2257.36,-216.86 2250.36,-216.86"/>
</g>
<!-- FormsModule -->
<g id="node20" class="node">
<title>FormsModule</title>
<polygon fill="#8dd3c7" stroke="black" points="4821.83,-122 4818.83,-126 4797.83,-126 4794.83,-122 4726.17,-122 4726.17,-86 4821.83,-86 4821.83,-122"/>
<text text-anchor="middle" x="4774" y="-99.8" font-family="Times,serif" font-size="14.00">FormsModule</text>
</g>
<!-- FormsModule&#45;&gt;AppModule -->
<g id="edge19" class="edge">
<title>FormsModule&#45;&gt;AppModule</title>
<path fill="none" stroke="black" d="M4758.11,-122.03C4758.11,-162.3 4758.11,-256 4758.11,-256 4758.11,-256 2299.73,-256 2299.73,-256"/>
<polygon fill="black" stroke="black" points="2299.73,-252.5 2289.73,-256 2299.73,-259.5 2299.73,-252.5"/>
</g>
<!-- FrameworkModule -->
<g id="node24" class="node">
<title>FrameworkModule</title>
<polygon fill="#8dd3c7" stroke="black" points="5093.08,-187 5090.08,-191 5069.08,-191 5066.08,-187 4968.92,-187 4968.92,-151 5093.08,-151 5093.08,-187"/>
<text text-anchor="middle" x="5031" y="-164.8" font-family="Times,serif" font-size="14.00">FrameworkModule</text>
</g>
<!-- FormsModule&#45;&gt;FrameworkModule -->
<g id="edge36" class="edge">
<title>FormsModule&#45;&gt;FrameworkModule</title>
<path fill="none" stroke="black" d="M4789.89,-122.11C4789.89,-141.34 4789.89,-169 4789.89,-169 4789.89,-169 4958.91,-169 4958.91,-169"/>
<polygon fill="black" stroke="black" points="4958.91,-172.5 4968.91,-169 4958.91,-165.5 4958.91,-172.5"/>
</g>
<!-- DragDropModule -->
<g id="node21" class="node">
<title>DragDropModule</title>
<polygon fill="#8dd3c7" stroke="black" points="4392.3,-122 4389.3,-126 4368.3,-126 4365.3,-122 4275.7,-122 4275.7,-86 4392.3,-86 4392.3,-122"/>
<text text-anchor="middle" x="4334" y="-99.8" font-family="Times,serif" font-size="14.00">DragDropModule</text>
</g>
<!-- DragDropModule&#45;&gt;AppModule -->
<g id="edge20" class="edge">
<title>DragDropModule&#45;&gt;AppModule</title>
<path fill="none" stroke="black" d="M4334,-122.2C4334,-161.33 4334,-250 4334,-250 4334,-250 2299.67,-250 2299.67,-250"/>
<polygon fill="black" stroke="black" points="2299.67,-246.5 2289.67,-250 2299.67,-253.5 2299.67,-246.5"/>
</g>
<!-- AppRoutingModule -->
<g id="node22" class="node">
<title>AppRoutingModule</title>
<polygon fill="#8dd3c7" stroke="black" points="4968.27,-122 4965.27,-126 4944.27,-126 4941.27,-122 4839.73,-122 4839.73,-86 4968.27,-86 4968.27,-122"/>
<text text-anchor="middle" x="4904" y="-99.8" font-family="Times,serif" font-size="14.00">AppRoutingModule</text>
</g>
<!-- AppRoutingModule&#45;&gt;AppModule -->
<g id="edge21" class="edge">
<title>AppRoutingModule&#45;&gt;AppModule</title>
<path fill="none" stroke="black" d="M4871.81,-122.27C4871.81,-163.06 4871.81,-258 4871.81,-258 4871.81,-258 2299.74,-258 2299.74,-258"/>
<polygon fill="black" stroke="black" points="2299.74,-254.5 2289.74,-258 2299.74,-261.5 2299.74,-254.5"/>
</g>
<!-- RouterModule  -->
<g id="node30" class="node">
<title>RouterModule </title>
<polygon fill="#fb8072" stroke="black" points="5234.65,-187 5133.35,-187 5133.35,-151 5234.65,-151 5234.65,-187"/>
<text text-anchor="middle" x="5184" y="-164.8" font-family="Times,serif" font-size="14.00">RouterModule </text>
</g>
<!-- AppRoutingModule&#45;&gt;RouterModule  -->
<g id="edge29" class="edge">
<title>AppRoutingModule&#45;&gt;RouterModule </title>
<path fill="none" stroke="black" stroke-dasharray="5,2" d="M4936.19,-122.13C4936.19,-132.71 4936.19,-144 4936.19,-144 4936.19,-144 5184,-144 5184,-144 5184,-144 5184,-144.68 5184,-144.68"/>
<polygon fill="black" stroke="black" points="5180.5,-140.83 5184,-150.83 5187.5,-140.83 5180.5,-140.83"/>
</g>
<!-- PrimengModule -->
<g id="node23" class="node">
<title>PrimengModule</title>
<polygon fill="#8dd3c7" stroke="black" points="5093.49,-122 5090.49,-126 5069.49,-126 5066.49,-122 4986.51,-122 4986.51,-86 5093.49,-86 5093.49,-122"/>
<text text-anchor="middle" x="5040" y="-99.8" font-family="Times,serif" font-size="14.00">PrimengModule</text>
</g>
<!-- PrimengModule&#45;&gt;AppModule -->
<g id="edge22" class="edge">
<title>PrimengModule&#45;&gt;AppModule</title>
<path fill="none" stroke="black" d="M5022.02,-122.06C5022.02,-126.49 5022.02,-130 5022.02,-130 5022.02,-130 2259.85,-130 2259.85,-130 2259.85,-130 2259.85,-216.78 2259.85,-216.78"/>
<polygon fill="black" stroke="black" points="2256.35,-216.78 2259.85,-226.78 2263.35,-216.78 2256.35,-216.78"/>
</g>
<!-- PrimengModule&#45;&gt;FrameworkModule -->
<g id="edge37" class="edge">
<title>PrimengModule&#45;&gt;FrameworkModule</title>
<path fill="none" stroke="black" d="M5057.53,-122.11C5057.53,-122.11 5057.53,-140.99 5057.53,-140.99"/>
<polygon fill="black" stroke="black" points="5054.03,-140.99 5057.53,-150.99 5061.03,-140.99 5054.03,-140.99"/>
</g>
<!-- ...PRIMENG_MODULES  -->
<g id="node46" class="node">
<title>...PRIMENG_MODULES </title>
<polygon fill="#fb8072" stroke="black" points="5644.64,-187 5477.36,-187 5477.36,-151 5644.64,-151 5644.64,-187"/>
<text text-anchor="middle" x="5561" y="-164.8" font-family="Times,serif" font-size="14.00">...PRIMENG_MODULES </text>
</g>
<!-- PrimengModule&#45;&gt;...PRIMENG_MODULES  -->
<g id="edge48" class="edge">
<title>PrimengModule&#45;&gt;...PRIMENG_MODULES </title>
<path fill="none" stroke="black" stroke-dasharray="5,2" d="M5093.79,-113C5226.91,-113 5561,-113 5561,-113 5561,-113 5561,-140.97 5561,-140.97"/>
<polygon fill="black" stroke="black" points="5557.5,-140.97 5561,-150.97 5564.5,-140.97 5557.5,-140.97"/>
</g>
<!-- FrameworkModule&#45;&gt;AppModule -->
<g id="edge23" class="edge">
<title>FrameworkModule&#45;&gt;AppModule</title>
<path fill="none" stroke="black" d="M4976.72,-187.42C4976.72,-214.01 4976.72,-260 4976.72,-260 4976.72,-260 2299.77,-260 2299.77,-260"/>
<polygon fill="black" stroke="black" points="2299.77,-256.5 2289.77,-260 2299.77,-263.5 2299.77,-256.5"/>
</g>
<!-- BasePickerComponent  -->
<g id="node37" class="node">
<title>BasePickerComponent </title>
<polygon fill="#fb8072" stroke="black" points="5636.81,-263 5489.19,-263 5489.19,-227 5636.81,-227 5636.81,-263"/>
<text text-anchor="middle" x="5563" y="-240.8" font-family="Times,serif" font-size="14.00">BasePickerComponent </text>
</g>
<!-- FrameworkModule&#45;&gt;BasePickerComponent  -->
<g id="edge38" class="edge">
<title>FrameworkModule&#45;&gt;BasePickerComponent </title>
<path fill="none" stroke="black" stroke-dasharray="5,2" d="M5038.76,-187.24C5038.76,-202.57 5038.76,-222 5038.76,-222 5038.76,-222 5563,-222 5563,-222 5563,-222 5563,-222.49 5563,-222.49"/>
<polygon fill="black" stroke="black" points="5559.5,-216.88 5563,-226.88 5566.5,-216.88 5559.5,-216.88"/>
</g>
<!-- ResultsTableComponent  -->
<g id="node38" class="node">
<title>ResultsTableComponent </title>
<polygon fill="#fb8072" stroke="black" points="5470.93,-263 5313.07,-263 5313.07,-227 5470.93,-227 5470.93,-263"/>
<text text-anchor="middle" x="5392" y="-240.8" font-family="Times,serif" font-size="14.00">ResultsTableComponent </text>
</g>
<!-- FrameworkModule&#45;&gt;ResultsTableComponent  -->
<g id="edge39" class="edge">
<title>FrameworkModule&#45;&gt;ResultsTableComponent </title>
<path fill="none" stroke="black" stroke-dasharray="5,2" d="M5031,-187.03C5031,-203.4 5031,-225 5031,-225 5031,-225 5374.85,-225 5374.85,-225 5374.85,-225 5374.85,-225.18 5374.85,-225.18"/>
<polygon fill="black" stroke="black" points="5371.35,-216.85 5374.85,-226.85 5378.35,-216.85 5371.35,-216.85"/>
</g>
<!-- QueryControlComponent  -->
<g id="node39" class="node">
<title>QueryControlComponent </title>
<polygon fill="#fb8072" stroke="black" points="5295.09,-263 5132.91,-263 5132.91,-227 5295.09,-227 5295.09,-263"/>
<text text-anchor="middle" x="5214" y="-240.8" font-family="Times,serif" font-size="14.00">QueryControlComponent </text>
</g>
<!-- FrameworkModule&#45;&gt;QueryControlComponent  -->
<g id="edge40" class="edge">
<title>FrameworkModule&#45;&gt;QueryControlComponent </title>
<path fill="none" stroke="black" stroke-dasharray="5,2" d="M5085.28,-187.37C5085.28,-214.48 5085.28,-262 5085.28,-262 5085.28,-262 5122.85,-262 5122.85,-262"/>
<polygon fill="black" stroke="black" points="5122.85,-265.5 5132.85,-262 5122.85,-258.5 5122.85,-265.5"/>
</g>
<!-- BaseChartComponent  -->
<g id="node40" class="node">
<title>BaseChartComponent </title>
<polygon fill="#fb8072" stroke="black" points="6361.65,-263 6218.35,-263 6218.35,-227 6361.65,-227 6361.65,-263"/>
<text text-anchor="middle" x="6290" y="-240.8" font-family="Times,serif" font-size="14.00">BaseChartComponent </text>
</g>
<!-- FrameworkModule&#45;&gt;BaseChartComponent  -->
<g id="edge41" class="edge">
<title>FrameworkModule&#45;&gt;BaseChartComponent </title>
<path fill="none" stroke="black" stroke-dasharray="5,2" d="M5077.53,-187.11C5077.53,-196.9 5077.53,-207 5077.53,-207 5077.53,-207 6290,-207 6290,-207 6290,-207 6290,-216.89 6290,-216.89"/>
<polygon fill="black" stroke="black" points="6286.5,-216.89 6290,-226.89 6293.5,-216.89 6286.5,-216.89"/>
</g>
<!-- StatisticsPanelComponent  -->
<g id="node41" class="node">
<title>StatisticsPanelComponent </title>
<polygon fill="#fb8072" stroke="black" points="6200.49,-263 6033.51,-263 6033.51,-227 6200.49,-227 6200.49,-263"/>
<text text-anchor="middle" x="6117" y="-240.8" font-family="Times,serif" font-size="14.00">StatisticsPanelComponent </text>
</g>
<!-- FrameworkModule&#45;&gt;StatisticsPanelComponent  -->
<g id="edge42" class="edge">
<title>FrameworkModule&#45;&gt;StatisticsPanelComponent </title>
<path fill="none" stroke="black" stroke-dasharray="5,2" d="M5069.77,-187.1C5069.77,-198.09 5069.77,-210 5069.77,-210 5069.77,-210 6117,-210 6117,-210 6117,-210 6117,-216.68 6117,-216.68"/>
<polygon fill="black" stroke="black" points="6113.5,-216.68 6117,-226.68 6120.5,-216.68 6113.5,-216.68"/>
</g>
<!-- CommonModule  -->
<g id="node42" class="node">
<title>CommonModule </title>
<polygon fill="#fb8072" stroke="black" points="6015.67,-263 5900.33,-263 5900.33,-227 6015.67,-227 6015.67,-263"/>
<text text-anchor="middle" x="5958" y="-240.8" font-family="Times,serif" font-size="14.00">CommonModule </text>
</g>
<!-- FrameworkModule&#45;&gt;CommonModule  -->
<g id="edge43" class="edge">
<title>FrameworkModule&#45;&gt;CommonModule </title>
<path fill="none" stroke="black" stroke-dasharray="5,2" d="M5062.02,-187.15C5062.02,-199.27 5062.02,-213 5062.02,-213 5062.02,-213 5958,-213 5958,-213 5958,-213 5958,-216.76 5958,-216.76"/>
<polygon fill="black" stroke="black" points="5954.5,-216.76 5958,-226.76 5961.5,-216.76 5954.5,-216.76"/>
</g>
<!-- FormsModule  -->
<g id="node43" class="node">
<title>FormsModule </title>
<polygon fill="#fb8072" stroke="black" points="5882.33,-263 5783.67,-263 5783.67,-227 5882.33,-227 5882.33,-263"/>
<text text-anchor="middle" x="5833" y="-240.8" font-family="Times,serif" font-size="14.00">FormsModule </text>
</g>
<!-- FrameworkModule&#45;&gt;FormsModule  -->
<g id="edge44" class="edge">
<title>FrameworkModule&#45;&gt;FormsModule </title>
<path fill="none" stroke="black" stroke-dasharray="5,2" d="M5054.27,-187.04C5054.27,-200.29 5054.27,-216 5054.27,-216 5054.27,-216 5808.33,-216 5808.33,-216 5808.33,-216 5808.33,-217.08 5808.33,-217.08"/>
<polygon fill="black" stroke="black" points="5804.83,-216.8 5808.33,-226.8 5811.83,-216.8 5804.83,-216.8"/>
</g>
<!-- PrimengModule  -->
<g id="node44" class="node">
<title>PrimengModule </title>
<polygon fill="#fb8072" stroke="black" points="5765.49,-263 5654.51,-263 5654.51,-227 5765.49,-227 5765.49,-263"/>
<text text-anchor="middle" x="5710" y="-240.8" font-family="Times,serif" font-size="14.00">PrimengModule </text>
</g>
<!-- FrameworkModule&#45;&gt;PrimengModule  -->
<g id="edge45" class="edge">
<title>FrameworkModule&#45;&gt;PrimengModule </title>
<path fill="none" stroke="black" stroke-dasharray="5,2" d="M5046.51,-187.05C5046.51,-201.37 5046.51,-219 5046.51,-219 5046.51,-219 5661.84,-219 5661.84,-219 5661.84,-219 5661.84,-219.79 5661.84,-219.79"/>
<polygon fill="black" stroke="black" points="5658.34,-216.94 5661.84,-226.94 5665.34,-216.94 5658.34,-216.94"/>
</g>
<!-- MessageService -->
<g id="node26" class="node">
<title>MessageService</title>
<ellipse fill="#fdb462" stroke="black" cx="1366" cy="-169" rx="73.55" ry="18"/>
<text text-anchor="middle" x="1366" y="-164.8" font-family="Times,serif" font-size="14.00">MessageService</text>
</g>
<!-- MessageService&#45;&gt;AppModule -->
<g id="edge25" class="edge">
<title>MessageService&#45;&gt;AppModule</title>
<path fill="none" stroke="black" d="M1366,-187.01C1366,-209.49 1366,-245 1366,-245 1366,-245 2196.05,-245 2196.05,-245"/>
<polygon fill="black" stroke="black" points="2196.05,-248.5 2206.05,-245 2196.05,-241.5 2196.05,-248.5"/>
</g>
<!-- { provide: ErrorHandler, useClass: GlobalErrorHandler } -->
<g id="node27" class="node">
<title>{ provide: ErrorHandler, useClass: GlobalErrorHandler }</title>
<ellipse fill="#fdb462" stroke="black" cx="1042" cy="-169" rx="232.85" ry="18"/>
<text text-anchor="middle" x="1042" y="-164.8" font-family="Times,serif" font-size="14.00">{ provide: ErrorHandler, useClass: GlobalErrorHandler }</text>
</g>
<!-- { provide: ErrorHandler, useClass: GlobalErrorHandler }&#45;&gt;AppModule -->
<g id="edge26" class="edge">
<title>{ provide: ErrorHandler, useClass: GlobalErrorHandler }&#45;&gt;AppModule</title>
<path fill="none" stroke="black" d="M1042,-187.2C1042,-211.36 1042,-251 1042,-251 1042,-251 2196.14,-251 2196.14,-251"/>
<polygon fill="black" stroke="black" points="2196.14,-254.5 2206.14,-251 2196.14,-247.5 2196.14,-254.5"/>
</g>
<!-- { provide: DOMAIN_CONFIG, useFactory: createAutomobileDomainConfig, deps: [Injector] } -->
<g id="node28" class="node">
<title>{ provide: DOMAIN_CONFIG, useFactory: createAutomobileDomainConfig, deps: [Injector] }</title>
<ellipse fill="#fdb462" stroke="black" cx="408" cy="-169" rx="383.85" ry="18"/>
<text text-anchor="middle" x="408" y="-164.8" font-family="Times,serif" font-size="14.00">{ provide: DOMAIN_CONFIG, useFactory: createAutomobileDomainConfig, deps: [Injector] }</text>
</g>
<!-- { provide: DOMAIN_CONFIG, useFactory: createAutomobileDomainConfig, deps: [Injector] }&#45;&gt;AppModule -->
<g id="edge27" class="edge">
<title>{ provide: DOMAIN_CONFIG, useFactory: createAutomobileDomainConfig, deps: [Injector] }&#45;&gt;AppModule</title>
<path fill="none" stroke="black" d="M408,-187.23C408,-213.01 408,-257 408,-257 408,-257 2196.11,-257 2196.11,-257"/>
<polygon fill="black" stroke="black" points="2196.11,-260.5 2206.11,-257 2196.11,-253.5 2196.11,-260.5"/>
</g>
<!-- RouterModule.forRoot(args) -->
<g id="node29" class="node">
<title>RouterModule.forRoot(args)</title>
<polygon fill="#8dd3c7" stroke="black" points="5436.84,-187 5433.84,-191 5412.84,-191 5409.84,-187 5259.16,-187 5259.16,-151 5436.84,-151 5436.84,-187"/>
<text text-anchor="middle" x="5348" y="-164.8" font-family="Times,serif" font-size="14.00">RouterModule.forRoot(args)</text>
</g>
<!-- RouterModule.forRoot(args)&#45;&gt;AppRoutingModule -->
<g id="edge28" class="edge">
<title>RouterModule.forRoot(args)&#45;&gt;AppRoutingModule</title>
<path fill="none" stroke="black" d="M5348,-150.76C5348,-143.57 5348,-137 5348,-137 5348,-137 4904,-137 4904,-137 4904,-137 4904,-132.04 4904,-132.04"/>
<polygon fill="black" stroke="black" points="4907.5,-132.04 4904,-122.04 4900.5,-132.04 4907.5,-132.04"/>
</g>
<!-- BasePickerComponent -->
<g id="node31" class="node">
<title>BasePickerComponent</title>
<polygon fill="#ffffb3" stroke="black" points="7217.31,-263 7072.69,-263 7072.69,-227 7217.31,-227 7217.31,-263"/>
<text text-anchor="middle" x="7145" y="-240.8" font-family="Times,serif" font-size="14.00">BasePickerComponent</text>
</g>
<!-- BasePickerComponent&#45;&gt;FrameworkModule -->
<g id="edge30" class="edge">
<title>BasePickerComponent&#45;&gt;FrameworkModule</title>
<path fill="none" stroke="black" d="M7145,-226.81C7145,-211.82 7145,-193 7145,-193 7145,-193 5015.49,-193 5015.49,-193 5015.49,-193 5015.49,-192.42 5015.49,-192.42"/>
<polygon fill="black" stroke="black" points="5018.99,-197.19 5015.49,-187.19 5011.99,-197.19 5018.99,-197.19"/>
</g>
<!-- ResultsTableComponent -->
<g id="node32" class="node">
<title>ResultsTableComponent</title>
<polygon fill="#ffffb3" stroke="black" points="7055.43,-263 6900.57,-263 6900.57,-227 7055.43,-227 7055.43,-263"/>
<text text-anchor="middle" x="6978" y="-240.8" font-family="Times,serif" font-size="14.00">ResultsTableComponent</text>
</g>
<!-- ResultsTableComponent&#45;&gt;FrameworkModule -->
<g id="edge31" class="edge">
<title>ResultsTableComponent&#45;&gt;FrameworkModule</title>
<path fill="none" stroke="black" d="M6978,-226.75C6978,-212.82 6978,-196 6978,-196 6978,-196 5007.73,-196 5007.73,-196 5007.73,-196 5007.73,-195.12 5007.73,-195.12"/>
<polygon fill="black" stroke="black" points="5011.24,-197.16 5007.73,-187.16 5004.24,-197.16 5011.24,-197.16"/>
</g>
<!-- QueryControlComponent -->
<g id="node33" class="node">
<title>QueryControlComponent</title>
<polygon fill="#ffffb3" stroke="black" points="6882.59,-263 6723.41,-263 6723.41,-227 6882.59,-227 6882.59,-263"/>
<text text-anchor="middle" x="6803" y="-240.8" font-family="Times,serif" font-size="14.00">QueryControlComponent</text>
</g>
<!-- QueryControlComponent&#45;&gt;FrameworkModule -->
<g id="edge32" class="edge">
<title>QueryControlComponent&#45;&gt;FrameworkModule</title>
<path fill="none" stroke="black" d="M6803,-226.82C6803,-213.96 6803,-199 6803,-199 6803,-199 4999.98,-199 4999.98,-199 4999.98,-199 4999.98,-197.14 4999.98,-197.14"/>
<polygon fill="black" stroke="black" points="5003.48,-197.14 4999.98,-187.14 4996.48,-197.14 5003.48,-197.14"/>
</g>
<!-- BaseChartComponent -->
<g id="node34" class="node">
<title>BaseChartComponent</title>
<polygon fill="#ffffb3" stroke="black" points="6705.65,-263 6566.35,-263 6566.35,-227 6705.65,-227 6705.65,-263"/>
<text text-anchor="middle" x="6636" y="-240.8" font-family="Times,serif" font-size="14.00">BaseChartComponent</text>
</g>
<!-- BaseChartComponent&#45;&gt;FrameworkModule -->
<g id="edge33" class="edge">
<title>BaseChartComponent&#45;&gt;FrameworkModule</title>
<path fill="none" stroke="black" d="M6636,-226.51C6636,-214.86 6636,-202 6636,-202 6636,-202 4992.23,-202 4992.23,-202 4992.23,-202 4992.23,-197.04 4992.23,-197.04"/>
<polygon fill="black" stroke="black" points="4995.73,-197.04 4992.23,-187.04 4988.73,-197.04 4995.73,-197.04"/>
</g>
<!-- StatisticsPanelComponent -->
<g id="node35" class="node">
<title>StatisticsPanelComponent</title>
<polygon fill="#ffffb3" stroke="black" points="6548.49,-263 6385.51,-263 6385.51,-227 6548.49,-227 6548.49,-263"/>
<text text-anchor="middle" x="6467" y="-240.8" font-family="Times,serif" font-size="14.00">StatisticsPanelComponent</text>
</g>
<!-- StatisticsPanelComponent&#45;&gt;FrameworkModule -->
<g id="edge34" class="edge">
<title>StatisticsPanelComponent&#45;&gt;FrameworkModule</title>
<path fill="none" stroke="black" d="M6467,-226.87C6467,-216.29 6467,-205 6467,-205 6467,-205 4984.47,-205 4984.47,-205 4984.47,-205 4984.47,-197.42 4984.47,-197.42"/>
<polygon fill="black" stroke="black" points="4987.97,-197.42 4984.47,-187.42 4980.97,-197.42 4987.97,-197.42"/>
</g>
<!-- CommonModule -->
<g id="node36" class="node">
<title>CommonModule</title>
<polygon fill="#8dd3c7" stroke="black" points="7352.67,-263 7349.67,-267 7328.67,-267 7325.67,-263 7241.33,-263 7241.33,-227 7352.67,-227 7352.67,-263"/>
<text text-anchor="middle" x="7297" y="-240.8" font-family="Times,serif" font-size="14.00">CommonModule</text>
</g>
<!-- CommonModule&#45;&gt;PrimengModule -->
<g id="edge46" class="edge">
<title>CommonModule&#45;&gt;PrimengModule</title>
<path fill="none" stroke="black" d="M7278.39,-226.91C7278.39,-187.01 7278.39,-95 7278.39,-95 7278.39,-95 5103.67,-95 5103.67,-95"/>
<polygon fill="black" stroke="black" points="5103.67,-91.5 5093.67,-95 5103.67,-98.5 5103.67,-91.5"/>
</g>
<!-- CommonModule&#45;&gt;FrameworkModule -->
<g id="edge35" class="edge">
<title>CommonModule&#45;&gt;FrameworkModule</title>
<path fill="none" stroke="black" d="M7315.61,-226.99C7315.61,-210.95 7315.61,-190 7315.61,-190 7315.61,-190 5023.24,-190 5023.24,-190 5023.24,-190 5023.24,-189.71 5023.24,-189.71"/>
<polygon fill="black" stroke="black" points="5026.75,-197.08 5023.24,-187.08 5019.75,-197.08 5026.75,-197.08"/>
</g>
<!-- ...PRIMENG_MODULES -->
<g id="node45" class="node">
<title>...PRIMENG_MODULES</title>
<polygon fill="#8dd3c7" stroke="black" points="5833.14,-187 5830.14,-191 5809.14,-191 5806.14,-187 5668.86,-187 5668.86,-151 5833.14,-151 5833.14,-187"/>
<text text-anchor="middle" x="5751" y="-164.8" font-family="Times,serif" font-size="14.00">...PRIMENG_MODULES</text>
</g>
<!-- ...PRIMENG_MODULES&#45;&gt;PrimengModule -->
<g id="edge47" class="edge">
<title>...PRIMENG_MODULES&#45;&gt;PrimengModule</title>
<path fill="none" stroke="black" d="M5751,-150.89C5751,-131.66 5751,-104 5751,-104 5751,-104 5103.73,-104 5103.73,-104"/>
<polygon fill="black" stroke="black" points="5103.73,-100.5 5093.73,-104 5103.73,-107.5 5103.73,-100.5"/>
</g>
</g>
</svg>
