<?xml version="1.0" encoding="UTF-8" standalone="no"?>
<!DOCTYPE svg PUBLIC "-//W3C//DTD SVG 1.1//EN"
 "http://www.w3.org/Graphics/SVG/1.1/DTD/svg11.dtd">
<!-- Generated by graphviz version 2.47.0 (20210316.0004)
 -->
<!-- Title: dependencies Pages: 1 -->
<svg width="1285pt" height="284pt"
 viewBox="0.00 0.00 1285.00 284.00" xmlns="http://www.w3.org/2000/svg" xmlns:xlink="http://www.w3.org/1999/xlink">
<g id="graph0" class="graph" transform="scale(1 1) rotate(0) translate(4 280)">
<title>dependencies</title>
<polygon fill="white" stroke="transparent" points="-4,4 -4,-280 1281,-280 1281,4 -4,4"/>
<text text-anchor="start" x="617.51" y="-42.4" font-family="Times-12" font-weight="bold" font-size="14.00">Legend</text>
<polygon fill="#ffffb3" stroke="transparent" points="404.5,-10 404.5,-30 424.5,-30 424.5,-10 404.5,-10"/>
<text text-anchor="start" x="428.13" y="-15.4" font-family="Times-12" font-size="14.00"> &#160;Declarations</text>
<polygon fill="#8dd3c7" stroke="transparent" points="517.5,-10 517.5,-30 537.5,-30 537.5,-10 517.5,-10"/>
<text text-anchor="start" x="541.23" y="-15.4" font-family="Times-12" font-size="14.00"> &#160;Module</text>
<polygon fill="#80b1d3" stroke="transparent" points="603.5,-10 603.5,-30 623.5,-30 623.5,-10 603.5,-10"/>
<text text-anchor="start" x="627.28" y="-15.4" font-family="Times-12" font-size="14.00"> &#160;Bootstrap</text>
<polygon fill="#fdb462" stroke="transparent" points="700.5,-10 700.5,-30 720.5,-30 720.5,-10 700.5,-10"/>
<text text-anchor="start" x="724.17" y="-15.4" font-family="Times-12" font-size="14.00"> &#160;Providers</text>
<polygon fill="#fb8072" stroke="transparent" points="796.5,-10 796.5,-30 816.5,-30 816.5,-10 796.5,-10"/>
<text text-anchor="start" x="820.23" y="-15.4" font-family="Times-12" font-size="14.00"> &#160;Exports</text>
<g id="clust1" class="cluster">
<title>cluster_FrameworkModule</title>
<polygon fill="none" stroke="black" stroke-dasharray="1,5" points="8,-70 8,-268 1269,-268 1269,-70 8,-70"/>
</g>
<g id="clust2" class="cluster">
<title>cluster_FrameworkModule_declarations</title>
<polygon fill="none" stroke="black" points="403,-78 403,-130 1250,-130 1250,-78 403,-78"/>
</g>
<g id="clust8" class="cluster">
<title>cluster_FrameworkModule_imports</title>
<polygon fill="none" stroke="black" points="30,-78 30,-130 395,-130 395,-78 30,-78"/>
</g>
<g id="clust9" class="cluster">
<title>cluster_FrameworkModule_exports</title>
<polygon fill="none" stroke="black" points="16,-208 16,-260 1261,-260 1261,-208 16,-208"/>
</g>
<!-- BasePickerComponent -->
<g id="node1" class="node">
<title>BasePickerComponent</title>
<polygon fill="#ffffb3" stroke="black" points="1242.31,-122 1097.69,-122 1097.69,-86 1242.31,-86 1242.31,-122"/>
<text text-anchor="middle" x="1170" y="-99.8" font-family="Times,serif" font-size="14.00">BasePickerComponent</text>
</g>
<!-- FrameworkModule -->
<g id="node6" class="node">
<title>FrameworkModule</title>
<polygon fill="#8dd3c7" stroke="black" points="558.08,-187 555.08,-191 534.08,-191 531.08,-187 433.92,-187 433.92,-151 558.08,-151 558.08,-187"/>
<text text-anchor="middle" x="496" y="-164.8" font-family="Times,serif" font-size="14.00">FrameworkModule</text>
</g>
<!-- BasePickerComponent&#45;&gt;FrameworkModule -->
<g id="edge1" class="edge">
<title>BasePickerComponent&#45;&gt;FrameworkModule</title>
<path fill="none" stroke="black" d="M1101.47,-122.22C1101.47,-140.83 1101.47,-167 1101.47,-167 1101.47,-167 568.23,-167 568.23,-167"/>
<polygon fill="black" stroke="black" points="568.23,-163.5 558.23,-167 568.23,-170.5 568.23,-163.5"/>
</g>
<!-- ResultsTableComponent -->
<g id="node2" class="node">
<title>ResultsTableComponent</title>
<polygon fill="#ffffb3" stroke="black" points="1080.43,-122 925.57,-122 925.57,-86 1080.43,-86 1080.43,-122"/>
<text text-anchor="middle" x="1003" y="-99.8" font-family="Times,serif" font-size="14.00">ResultsTableComponent</text>
</g>
<!-- ResultsTableComponent&#45;&gt;FrameworkModule -->
<g id="edge2" class="edge">
<title>ResultsTableComponent&#45;&gt;FrameworkModule</title>
<path fill="none" stroke="black" d="M1029.82,-122.02C1029.82,-139.37 1029.82,-163 1029.82,-163 1029.82,-163 568.28,-163 568.28,-163"/>
<polygon fill="black" stroke="black" points="568.28,-159.5 558.28,-163 568.28,-166.5 568.28,-159.5"/>
</g>
<!-- QueryControlComponent -->
<g id="node3" class="node">
<title>QueryControlComponent</title>
<polygon fill="#ffffb3" stroke="black" points="907.59,-122 748.41,-122 748.41,-86 907.59,-86 907.59,-122"/>
<text text-anchor="middle" x="828" y="-99.8" font-family="Times,serif" font-size="14.00">QueryControlComponent</text>
</g>
<!-- QueryControlComponent&#45;&gt;FrameworkModule -->
<g id="edge3" class="edge">
<title>QueryControlComponent&#45;&gt;FrameworkModule</title>
<path fill="none" stroke="black" d="M854.6,-122.01C854.6,-138.05 854.6,-159 854.6,-159 854.6,-159 568.05,-159 568.05,-159"/>
<polygon fill="black" stroke="black" points="568.05,-155.5 558.05,-159 568.05,-162.5 568.05,-155.5"/>
</g>
<!-- BaseChartComponent -->
<g id="node4" class="node">
<title>BaseChartComponent</title>
<polygon fill="#ffffb3" stroke="black" points="730.65,-122 591.35,-122 591.35,-86 730.65,-86 730.65,-122"/>
<text text-anchor="middle" x="661" y="-99.8" font-family="Times,serif" font-size="14.00">BaseChartComponent</text>
</g>
<!-- BaseChartComponent&#45;&gt;FrameworkModule -->
<g id="edge4" class="edge">
<title>BaseChartComponent&#45;&gt;FrameworkModule</title>
<path fill="none" stroke="black" d="M637.64,-122.12C637.64,-136.78 637.64,-155 637.64,-155 637.64,-155 568.13,-155 568.13,-155"/>
<polygon fill="black" stroke="black" points="568.13,-151.5 558.13,-155 568.13,-158.5 568.13,-151.5"/>
</g>
<!-- StatisticsPanelComponent -->
<g id="node5" class="node">
<title>StatisticsPanelComponent</title>
<polygon fill="#ffffb3" stroke="black" points="573.49,-122 410.51,-122 410.51,-86 573.49,-86 573.49,-122"/>
<text text-anchor="middle" x="492" y="-99.8" font-family="Times,serif" font-size="14.00">StatisticsPanelComponent</text>
</g>
<!-- StatisticsPanelComponent&#45;&gt;FrameworkModule -->
<g id="edge5" class="edge">
<title>StatisticsPanelComponent&#45;&gt;FrameworkModule</title>
<path fill="none" stroke="black" d="M496,-122.11C496,-122.11 496,-140.99 496,-140.99"/>
<polygon fill="black" stroke="black" points="492.5,-140.99 496,-150.99 499.5,-140.99 492.5,-140.99"/>
</g>
<!-- BasePickerComponent  -->
<g id="node10" class="node">
<title>BasePickerComponent </title>
<polygon fill="#fb8072" stroke="black" points="1252.81,-252 1105.19,-252 1105.19,-216 1252.81,-216 1252.81,-252"/>
<text text-anchor="middle" x="1179" y="-229.8" font-family="Times,serif" font-size="14.00">BasePickerComponent </text>
</g>
<!-- FrameworkModule&#45;&gt;BasePickerComponent  -->
<g id="edge9" class="edge">
<title>FrameworkModule&#45;&gt;BasePickerComponent </title>
<path fill="none" stroke="black" stroke-dasharray="5,2" d="M558.23,-171C725.75,-171 1173.62,-171 1173.62,-171 1173.62,-171 1173.62,-205.78 1173.62,-205.78"/>
<polygon fill="black" stroke="black" points="1170.13,-205.78 1173.62,-215.78 1177.13,-205.78 1170.13,-205.78"/>
</g>
<!-- ResultsTableComponent  -->
<g id="node11" class="node">
<title>ResultsTableComponent </title>
<polygon fill="#fb8072" stroke="black" points="1086.93,-252 929.07,-252 929.07,-216 1086.93,-216 1086.93,-252"/>
<text text-anchor="middle" x="1008" y="-229.8" font-family="Times,serif" font-size="14.00">ResultsTableComponent </text>
</g>
<!-- FrameworkModule&#45;&gt;ResultsTableComponent  -->
<g id="edge10" class="edge">
<title>FrameworkModule&#45;&gt;ResultsTableComponent </title>
<path fill="none" stroke="black" stroke-dasharray="5,2" d="M558.21,-175C688.78,-175 979.43,-175 979.43,-175 979.43,-175 979.43,-205.98 979.43,-205.98"/>
<polygon fill="black" stroke="black" points="975.93,-205.98 979.43,-215.98 982.93,-205.98 975.93,-205.98"/>
</g>
<!-- QueryControlComponent  -->
<g id="node12" class="node">
<title>QueryControlComponent </title>
<polygon fill="#fb8072" stroke="black" points="911.09,-252 748.91,-252 748.91,-216 911.09,-216 911.09,-252"/>
<text text-anchor="middle" x="830" y="-229.8" font-family="Times,serif" font-size="14.00">QueryControlComponent </text>
</g>
<!-- FrameworkModule&#45;&gt;QueryControlComponent  -->
<g id="edge11" class="edge">
<title>FrameworkModule&#45;&gt;QueryControlComponent </title>
<path fill="none" stroke="black" stroke-dasharray="5,2" d="M558.22,-179C647.59,-179 801.65,-179 801.65,-179 801.65,-179 801.65,-205.99 801.65,-205.99"/>
<polygon fill="black" stroke="black" points="798.15,-205.99 801.65,-215.99 805.15,-205.99 798.15,-205.99"/>
</g>
<!-- BaseChartComponent  -->
<g id="node13" class="node">
<title>BaseChartComponent </title>
<polygon fill="#fb8072" stroke="black" points="730.65,-252 587.35,-252 587.35,-216 730.65,-216 730.65,-252"/>
<text text-anchor="middle" x="659" y="-229.8" font-family="Times,serif" font-size="14.00">BaseChartComponent </text>
</g>
<!-- FrameworkModule&#45;&gt;BaseChartComponent  -->
<g id="edge12" class="edge">
<title>FrameworkModule&#45;&gt;BaseChartComponent </title>
<path fill="none" stroke="black" stroke-dasharray="5,2" d="M558.11,-183C612.91,-183 684.11,-183 684.11,-183 684.11,-183 684.11,-205.88 684.11,-205.88"/>
<polygon fill="black" stroke="black" points="680.61,-205.88 684.11,-215.88 687.61,-205.88 680.61,-205.88"/>
</g>
<!-- StatisticsPanelComponent  -->
<g id="node14" class="node">
<title>StatisticsPanelComponent </title>
<polygon fill="#fb8072" stroke="black" points="569.49,-252 402.51,-252 402.51,-216 569.49,-216 569.49,-252"/>
<text text-anchor="middle" x="486" y="-229.8" font-family="Times,serif" font-size="14.00">StatisticsPanelComponent </text>
</g>
<!-- FrameworkModule&#45;&gt;StatisticsPanelComponent  -->
<g id="edge13" class="edge">
<title>FrameworkModule&#45;&gt;StatisticsPanelComponent </title>
<path fill="none" stroke="black" stroke-dasharray="5,2" d="M496,-187.11C496,-187.11 496,-205.99 496,-205.99"/>
<polygon fill="black" stroke="black" points="492.5,-205.99 496,-215.99 499.5,-205.99 492.5,-205.99"/>
</g>
<!-- CommonModule  -->
<g id="node15" class="node">
<title>CommonModule </title>
<polygon fill="#fb8072" stroke="black" points="384.67,-252 269.33,-252 269.33,-216 384.67,-216 384.67,-252"/>
<text text-anchor="middle" x="327" y="-229.8" font-family="Times,serif" font-size="14.00">CommonModule </text>
</g>
<!-- FrameworkModule&#45;&gt;CommonModule  -->
<g id="edge14" class="edge">
<title>FrameworkModule&#45;&gt;CommonModule </title>
<path fill="none" stroke="black" stroke-dasharray="5,2" d="M433.84,-182C380.32,-182 311.64,-182 311.64,-182 311.64,-182 311.64,-205.81 311.64,-205.81"/>
<polygon fill="black" stroke="black" points="308.14,-205.81 311.64,-215.81 315.14,-205.81 308.14,-205.81"/>
</g>
<!-- FormsModule  -->
<g id="node16" class="node">
<title>FormsModule </title>
<polygon fill="#fb8072" stroke="black" points="251.33,-252 152.67,-252 152.67,-216 251.33,-216 251.33,-252"/>
<text text-anchor="middle" x="202" y="-229.8" font-family="Times,serif" font-size="14.00">FormsModule </text>
</g>
<!-- FrameworkModule&#45;&gt;FormsModule  -->
<g id="edge15" class="edge">
<title>FrameworkModule&#45;&gt;FormsModule </title>
<path fill="none" stroke="black" stroke-dasharray="5,2" d="M433.75,-177C344.82,-177 192.03,-177 192.03,-177 192.03,-177 192.03,-205.96 192.03,-205.96"/>
<polygon fill="black" stroke="black" points="188.53,-205.96 192.03,-215.96 195.53,-205.96 188.53,-205.96"/>
</g>
<!-- PrimengModule  -->
<g id="node17" class="node">
<title>PrimengModule </title>
<polygon fill="#fb8072" stroke="black" points="134.49,-252 23.51,-252 23.51,-216 134.49,-216 134.49,-252"/>
<text text-anchor="middle" x="79" y="-229.8" font-family="Times,serif" font-size="14.00">PrimengModule </text>
</g>
<!-- FrameworkModule&#45;&gt;PrimengModule  -->
<g id="edge16" class="edge">
<title>FrameworkModule&#45;&gt;PrimengModule </title>
<path fill="none" stroke="black" stroke-dasharray="5,2" d="M433.71,-172C318.98,-172 85.88,-172 85.88,-172 85.88,-172 85.88,-205.73 85.88,-205.73"/>
<polygon fill="black" stroke="black" points="82.38,-205.73 85.88,-215.73 89.38,-205.73 82.38,-205.73"/>
</g>
<!-- CommonModule -->
<g id="node7" class="node">
<title>CommonModule</title>
<polygon fill="#8dd3c7" stroke="black" points="386.67,-122 383.67,-126 362.67,-126 359.67,-122 275.33,-122 275.33,-86 386.67,-86 386.67,-122"/>
<text text-anchor="middle" x="331" y="-99.8" font-family="Times,serif" font-size="14.00">CommonModule</text>
</g>
<!-- CommonModule&#45;&gt;FrameworkModule -->
<g id="edge6" class="edge">
<title>CommonModule&#45;&gt;FrameworkModule</title>
<path fill="none" stroke="black" d="M348.11,-122.24C348.11,-137.57 348.11,-157 348.11,-157 348.11,-157 423.71,-157 423.71,-157"/>
<polygon fill="black" stroke="black" points="423.71,-160.5 433.71,-157 423.71,-153.5 423.71,-160.5"/>
</g>
<!-- FormsModule -->
<g id="node8" class="node">
<title>FormsModule</title>
<polygon fill="#8dd3c7" stroke="black" points="257.83,-122 254.83,-126 233.83,-126 230.83,-122 162.17,-122 162.17,-86 257.83,-86 257.83,-122"/>
<text text-anchor="middle" x="210" y="-99.8" font-family="Times,serif" font-size="14.00">FormsModule</text>
</g>
<!-- FormsModule&#45;&gt;FrameworkModule -->
<g id="edge7" class="edge">
<title>FormsModule&#45;&gt;FrameworkModule</title>
<path fill="none" stroke="black" d="M221.72,-122.03C221.72,-139.06 221.72,-162 221.72,-162 221.72,-162 423.76,-162 423.76,-162"/>
<polygon fill="black" stroke="black" points="423.76,-165.5 433.76,-162 423.76,-158.5 423.76,-165.5"/>
</g>
<!-- PrimengModule -->
<g id="node9" class="node">
<title>PrimengModule</title>
<polygon fill="#8dd3c7" stroke="black" points="144.49,-122 141.49,-126 120.49,-126 117.49,-122 37.51,-122 37.51,-86 144.49,-86 144.49,-122"/>
<text text-anchor="middle" x="91" y="-99.8" font-family="Times,serif" font-size="14.00">PrimengModule</text>
</g>
<!-- PrimengModule&#45;&gt;FrameworkModule -->
<g id="edge8" class="edge">
<title>PrimengModule&#45;&gt;FrameworkModule</title>
<path fill="none" stroke="black" d="M139.37,-122.22C139.37,-140.83 139.37,-167 139.37,-167 139.37,-167 423.88,-167 423.88,-167"/>
<polygon fill="black" stroke="black" points="423.88,-170.5 433.88,-167 423.88,-163.5 423.88,-170.5"/>
</g>
</g>
</svg>
