<?xml version="1.0" encoding="UTF-8" standalone="no"?>
<!DOCTYPE svg PUBLIC "-//W3C//DTD SVG 1.1//EN"
 "http://www.w3.org/Graphics/SVG/1.1/DTD/svg11.dtd">
<!-- Generated by graphviz version 2.47.0 (20210316.0004)
 -->
<!-- Title: dependencies Pages: 1 -->
<svg width="5134pt" height="284pt"
 viewBox="0.00 0.00 5134.00 284.00" xmlns="http://www.w3.org/2000/svg" xmlns:xlink="http://www.w3.org/1999/xlink">
<g id="graph0" class="graph" transform="scale(1 1) rotate(0) translate(4 280)">
<title>dependencies</title>
<polygon fill="white" stroke="transparent" points="-4,4 -4,-280 5130,-280 5130,4 -4,4"/>
<text text-anchor="start" x="2542.01" y="-42.4" font-family="Times-12" font-weight="bold" font-size="14.00">Legend</text>
<polygon fill="#ffffb3" stroke="transparent" points="2329,-10 2329,-30 2349,-30 2349,-10 2329,-10"/>
<text text-anchor="start" x="2352.63" y="-15.4" font-family="Times-12" font-size="14.00"> &#160;Declarations</text>
<polygon fill="#8dd3c7" stroke="transparent" points="2442,-10 2442,-30 2462,-30 2462,-10 2442,-10"/>
<text text-anchor="start" x="2465.73" y="-15.4" font-family="Times-12" font-size="14.00"> &#160;Module</text>
<polygon fill="#80b1d3" stroke="transparent" points="2528,-10 2528,-30 2548,-30 2548,-10 2528,-10"/>
<text text-anchor="start" x="2551.78" y="-15.4" font-family="Times-12" font-size="14.00"> &#160;Bootstrap</text>
<polygon fill="#fdb462" stroke="transparent" points="2625,-10 2625,-30 2645,-30 2645,-10 2625,-10"/>
<text text-anchor="start" x="2648.67" y="-15.4" font-family="Times-12" font-size="14.00"> &#160;Providers</text>
<polygon fill="#fb8072" stroke="transparent" points="2721,-10 2721,-30 2741,-30 2741,-10 2721,-10"/>
<text text-anchor="start" x="2744.73" y="-15.4" font-family="Times-12" font-size="14.00"> &#160;Exports</text>
<g id="clust1" class="cluster">
<title>cluster_AppModule</title>
<polygon fill="none" stroke="black" stroke-dasharray="1,5" points="8,-70 8,-268 5118,-268 5118,-70 8,-70"/>
</g>
<g id="clust2" class="cluster">
<title>cluster_AppModule_declarations</title>
<polygon fill="none" stroke="black" points="2576,-78 2576,-130 5110,-130 5110,-78 2576,-78"/>
</g>
<g id="clust21" class="cluster">
<title>cluster_AppModule_providers</title>
<polygon fill="none" stroke="black" points="1136,-78 1136,-130 2568,-130 2568,-78 1136,-78"/>
</g>
<g id="clust18" class="cluster">
<title>cluster_AppModule_imports</title>
<polygon fill="none" stroke="black" points="16,-78 16,-130 1128,-130 1128,-78 16,-78"/>
</g>
<g id="clust20" class="cluster">
<title>cluster_AppModule_bootstrap</title>
<polygon fill="none" stroke="black" points="2853,-208 2853,-260 2977,-260 2977,-208 2853,-208"/>
</g>
<!-- AppComponent -->
<g id="node1" class="node">
<title>AppComponent</title>
<polygon fill="#ffffb3" stroke="black" points="5101.94,-122 4996.06,-122 4996.06,-86 5101.94,-86 5101.94,-122"/>
<text text-anchor="middle" x="5049" y="-99.8" font-family="Times,serif" font-size="14.00">AppComponent</text>
</g>
<!-- AppModule -->
<g id="node16" class="node">
<title>AppModule</title>
<polygon fill="#8dd3c7" stroke="black" points="2956.66,-187 2953.66,-191 2932.66,-191 2929.66,-187 2873.34,-187 2873.34,-151 2956.66,-151 2956.66,-187"/>
<text text-anchor="middle" x="2915" y="-164.8" font-family="Times,serif" font-size="14.00">AppModule</text>
</g>
<!-- AppComponent&#45;&gt;AppModule -->
<g id="edge1" class="edge">
<title>AppComponent&#45;&gt;AppModule</title>
<path fill="none" stroke="black" d="M5049,-122.38C5049,-146.28 5049,-185 5049,-185 5049,-185 2966.67,-185 2966.67,-185"/>
<polygon fill="black" stroke="black" points="2966.67,-181.5 2956.67,-185 2966.67,-188.5 2966.67,-181.5"/>
</g>
<!-- DiscoverComponent -->
<g id="node2" class="node">
<title>DiscoverComponent</title>
<polygon fill="#ffffb3" stroke="black" points="4977.86,-122 4846.14,-122 4846.14,-86 4977.86,-86 4977.86,-122"/>
<text text-anchor="middle" x="4912" y="-99.8" font-family="Times,serif" font-size="14.00">DiscoverComponent</text>
</g>
<!-- DiscoverComponent&#45;&gt;AppModule -->
<g id="edge2" class="edge">
<title>DiscoverComponent&#45;&gt;AppModule</title>
<path fill="none" stroke="black" d="M4912,-122.09C4912,-145.13 4912,-182 4912,-182 4912,-182 2966.71,-182 2966.71,-182"/>
<polygon fill="black" stroke="black" points="2966.71,-178.5 2956.71,-182 2966.71,-185.5 2966.71,-178.5"/>
</g>
<!-- PanelPopoutComponent -->
<g id="node3" class="node">
<title>PanelPopoutComponent</title>
<polygon fill="#ffffb3" stroke="black" points="4828.11,-122 4675.89,-122 4675.89,-86 4828.11,-86 4828.11,-122"/>
<text text-anchor="middle" x="4752" y="-99.8" font-family="Times,serif" font-size="14.00">PanelPopoutComponent</text>
</g>
<!-- PanelPopoutComponent&#45;&gt;AppModule -->
<g id="edge3" class="edge">
<title>PanelPopoutComponent&#45;&gt;AppModule</title>
<path fill="none" stroke="black" d="M4752,-122.16C4752,-144.35 4752,-179 4752,-179 4752,-179 2966.82,-179 2966.82,-179"/>
<polygon fill="black" stroke="black" points="2966.82,-175.5 2956.82,-179 2966.82,-182.5 2966.82,-175.5"/>
</g>
<!-- ReportComponent -->
<g id="node4" class="node">
<title>ReportComponent</title>
<polygon fill="#ffffb3" stroke="black" points="4657.94,-122 4538.06,-122 4538.06,-86 4657.94,-86 4657.94,-122"/>
<text text-anchor="middle" x="4598" y="-99.8" font-family="Times,serif" font-size="14.00">ReportComponent</text>
</g>
<!-- ReportComponent&#45;&gt;AppModule -->
<g id="edge4" class="edge">
<title>ReportComponent&#45;&gt;AppModule</title>
<path fill="none" stroke="black" d="M4598,-122.17C4598,-143.5 4598,-176 4598,-176 4598,-176 2967.02,-176 2967.02,-176"/>
<polygon fill="black" stroke="black" points="2967.02,-172.5 2957.02,-176 2967.02,-179.5 2967.02,-172.5"/>
</g>
<!-- HomeComponent -->
<g id="node5" class="node">
<title>HomeComponent</title>
<polygon fill="#ffffb3" stroke="black" points="4520.55,-122 4405.45,-122 4405.45,-86 4520.55,-86 4520.55,-122"/>
<text text-anchor="middle" x="4463" y="-99.8" font-family="Times,serif" font-size="14.00">HomeComponent</text>
</g>
<!-- HomeComponent&#45;&gt;AppModule -->
<g id="edge5" class="edge">
<title>HomeComponent&#45;&gt;AppModule</title>
<path fill="none" stroke="black" d="M4463,-122.03C4463,-142.77 4463,-174 4463,-174 4463,-174 2966.81,-174 2966.81,-174"/>
<polygon fill="black" stroke="black" points="2966.81,-170.5 2956.81,-174 2966.81,-177.5 2966.81,-170.5"/>
</g>
<!-- AutomobileComponent -->
<g id="node6" class="node">
<title>AutomobileComponent</title>
<polygon fill="#ffffb3" stroke="black" points="4387.22,-122 4238.78,-122 4238.78,-86 4387.22,-86 4387.22,-122"/>
<text text-anchor="middle" x="4313" y="-99.8" font-family="Times,serif" font-size="14.00">AutomobileComponent</text>
</g>
<!-- AutomobileComponent&#45;&gt;AppModule -->
<g id="edge6" class="edge">
<title>AutomobileComponent&#45;&gt;AppModule</title>
<path fill="none" stroke="black" d="M4313,-122.31C4313,-142.15 4313,-171 4313,-171 4313,-171 2966.84,-171 2966.84,-171"/>
<polygon fill="black" stroke="black" points="2966.84,-167.5 2956.84,-171 2966.84,-174.5 2966.84,-167.5"/>
</g>
<!-- AgricultureComponent -->
<g id="node7" class="node">
<title>AgricultureComponent</title>
<polygon fill="#ffffb3" stroke="black" points="4220.86,-122 4075.14,-122 4075.14,-86 4220.86,-86 4220.86,-122"/>
<text text-anchor="middle" x="4148" y="-99.8" font-family="Times,serif" font-size="14.00">AgricultureComponent</text>
</g>
<!-- AgricultureComponent&#45;&gt;AppModule -->
<g id="edge7" class="edge">
<title>AgricultureComponent&#45;&gt;AppModule</title>
<path fill="none" stroke="black" d="M4148,-122.17C4148,-141.09 4148,-168 4148,-168 4148,-168 2966.73,-168 2966.73,-168"/>
<polygon fill="black" stroke="black" points="2966.73,-164.5 2956.73,-168 2966.73,-171.5 2966.73,-164.5"/>
</g>
<!-- PhysicsComponent -->
<g id="node8" class="node">
<title>PhysicsComponent</title>
<polygon fill="#ffffb3" stroke="black" points="4057.11,-122 3932.89,-122 3932.89,-86 4057.11,-86 4057.11,-122"/>
<text text-anchor="middle" x="3995" y="-99.8" font-family="Times,serif" font-size="14.00">PhysicsComponent</text>
</g>
<!-- PhysicsComponent&#45;&gt;AppModule -->
<g id="edge8" class="edge">
<title>PhysicsComponent&#45;&gt;AppModule</title>
<path fill="none" stroke="black" d="M3995,-122.3C3995,-140.27 3995,-165 3995,-165 3995,-165 2966.68,-165 2966.68,-165"/>
<polygon fill="black" stroke="black" points="2966.68,-161.5 2956.68,-165 2966.68,-168.5 2966.68,-161.5"/>
</g>
<!-- PhysicsSyllabusComponent -->
<g id="node9" class="node">
<title>PhysicsSyllabusComponent</title>
<polygon fill="#ffffb3" stroke="black" points="3915.33,-122 3742.67,-122 3742.67,-86 3915.33,-86 3915.33,-122"/>
<text text-anchor="middle" x="3829" y="-99.8" font-family="Times,serif" font-size="14.00">PhysicsSyllabusComponent</text>
</g>
<!-- PhysicsSyllabusComponent&#45;&gt;AppModule -->
<g id="edge9" class="edge">
<title>PhysicsSyllabusComponent&#45;&gt;AppModule</title>
<path fill="none" stroke="black" d="M3829,-122.02C3829,-139.37 3829,-163 3829,-163 3829,-163 2966.95,-163 2966.95,-163"/>
<polygon fill="black" stroke="black" points="2966.95,-159.5 2956.95,-163 2966.95,-166.5 2966.95,-159.5"/>
</g>
<!-- PhysicsConceptGraphComponent -->
<g id="node10" class="node">
<title>PhysicsConceptGraphComponent</title>
<polygon fill="#ffffb3" stroke="black" points="3724.75,-122 3519.25,-122 3519.25,-86 3724.75,-86 3724.75,-122"/>
<text text-anchor="middle" x="3622" y="-99.8" font-family="Times,serif" font-size="14.00">PhysicsConceptGraphComponent</text>
</g>
<!-- PhysicsConceptGraphComponent&#45;&gt;AppModule -->
<g id="edge10" class="edge">
<title>PhysicsConceptGraphComponent&#45;&gt;AppModule</title>
<path fill="none" stroke="black" d="M3622,-122.03C3622,-138.4 3622,-160 3622,-160 3622,-160 2966.85,-160 2966.85,-160"/>
<polygon fill="black" stroke="black" points="2966.85,-156.5 2956.85,-160 2966.85,-163.5 2966.85,-156.5"/>
</g>
<!-- KnowledgeGraphComponent -->
<g id="node11" class="node">
<title>KnowledgeGraphComponent</title>
<polygon fill="#ffffb3" stroke="black" points="3501.35,-122 3320.65,-122 3320.65,-86 3501.35,-86 3501.35,-122"/>
<text text-anchor="middle" x="3411" y="-99.8" font-family="Times,serif" font-size="14.00">KnowledgeGraphComponent</text>
</g>
<!-- KnowledgeGraphComponent&#45;&gt;AppModule -->
<g id="edge11" class="edge">
<title>KnowledgeGraphComponent&#45;&gt;AppModule</title>
<path fill="none" stroke="black" d="M3411,-122.24C3411,-137.57 3411,-157 3411,-157 3411,-157 2966.86,-157 2966.86,-157"/>
<polygon fill="black" stroke="black" points="2966.86,-153.5 2956.86,-157 2966.86,-160.5 2966.86,-153.5"/>
</g>
<!-- ClassicalMechanicsGraphComponent -->
<g id="node12" class="node">
<title>ClassicalMechanicsGraphComponent</title>
<polygon fill="#ffffb3" stroke="black" points="3302.99,-122 3075.01,-122 3075.01,-86 3302.99,-86 3302.99,-122"/>
<text text-anchor="middle" x="3189" y="-99.8" font-family="Times,serif" font-size="14.00">ClassicalMechanicsGraphComponent</text>
</g>
<!-- ClassicalMechanicsGraphComponent&#45;&gt;AppModule -->
<g id="edge12" class="edge">
<title>ClassicalMechanicsGraphComponent&#45;&gt;AppModule</title>
<path fill="none" stroke="black" d="M3189,-122.05C3189,-136.37 3189,-154 3189,-154 3189,-154 2966.91,-154 2966.91,-154"/>
<polygon fill="black" stroke="black" points="2966.91,-150.5 2956.91,-154 2966.91,-157.5 2966.91,-150.5"/>
</g>
<!-- ChemistryComponent -->
<g id="node13" class="node">
<title>ChemistryComponent</title>
<polygon fill="#ffffb3" stroke="black" points="3056.66,-122 2917.34,-122 2917.34,-86 3056.66,-86 3056.66,-122"/>
<text text-anchor="middle" x="2987" y="-99.8" font-family="Times,serif" font-size="14.00">ChemistryComponent</text>
</g>
<!-- ChemistryComponent&#45;&gt;AppModule -->
<g id="edge13" class="edge">
<title>ChemistryComponent&#45;&gt;AppModule</title>
<path fill="none" stroke="black" d="M2937,-122.11C2937,-122.11 2937,-140.99 2937,-140.99"/>
<polygon fill="black" stroke="black" points="2933.5,-140.99 2937,-150.99 2940.5,-140.99 2933.5,-140.99"/>
</g>
<!-- MathComponent -->
<g id="node14" class="node">
<title>MathComponent</title>
<polygon fill="#ffffb3" stroke="black" points="2899.38,-122 2788.62,-122 2788.62,-86 2899.38,-86 2899.38,-122"/>
<text text-anchor="middle" x="2844" y="-99.8" font-family="Times,serif" font-size="14.00">MathComponent</text>
</g>
<!-- MathComponent&#45;&gt;AppModule -->
<g id="edge14" class="edge">
<title>MathComponent&#45;&gt;AppModule</title>
<path fill="none" stroke="black" d="M2886.31,-122.11C2886.31,-122.11 2886.31,-140.99 2886.31,-140.99"/>
<polygon fill="black" stroke="black" points="2882.81,-140.99 2886.31,-150.99 2889.81,-140.99 2882.81,-140.99"/>
</g>
<!-- DependencyGraphComponent -->
<g id="node15" class="node">
<title>DependencyGraphComponent</title>
<polygon fill="#ffffb3" stroke="black" points="2770.28,-122 2583.72,-122 2583.72,-86 2770.28,-86 2770.28,-122"/>
<text text-anchor="middle" x="2677" y="-99.8" font-family="Times,serif" font-size="14.00">DependencyGraphComponent</text>
</g>
<!-- DependencyGraphComponent&#45;&gt;AppModule -->
<g id="edge15" class="edge">
<title>DependencyGraphComponent&#45;&gt;AppModule</title>
<path fill="none" stroke="black" d="M2677,-122.05C2677,-136.37 2677,-154 2677,-154 2677,-154 2863.27,-154 2863.27,-154"/>
<polygon fill="black" stroke="black" points="2863.27,-157.5 2873.27,-154 2863.27,-150.5 2863.27,-157.5"/>
</g>
<!-- AppComponent  -->
<g id="node25" class="node">
<title>AppComponent </title>
<polygon fill="#80b1d3" stroke="black" points="2969.44,-252 2860.56,-252 2860.56,-216 2969.44,-216 2969.44,-252"/>
<text text-anchor="middle" x="2915" y="-229.8" font-family="Times,serif" font-size="14.00">AppComponent </text>
</g>
<!-- AppModule&#45;&gt;AppComponent  -->
<g id="edge24" class="edge">
<title>AppModule&#45;&gt;AppComponent </title>
<path fill="none" stroke="black" stroke-dasharray="1,5" d="M2915,-187.11C2915,-187.11 2915,-205.99 2915,-205.99"/>
<polygon fill="black" stroke="black" points="2911.5,-205.99 2915,-215.99 2918.5,-205.99 2911.5,-205.99"/>
</g>
<!-- BrowserModule -->
<g id="node17" class="node">
<title>BrowserModule</title>
<polygon fill="#8dd3c7" stroke="black" points="1120.47,-122 1117.47,-126 1096.47,-126 1093.47,-122 1013.53,-122 1013.53,-86 1120.47,-86 1120.47,-122"/>
<text text-anchor="middle" x="1067" y="-99.8" font-family="Times,serif" font-size="14.00">BrowserModule</text>
</g>
<!-- BrowserModule&#45;&gt;AppModule -->
<g id="edge16" class="edge">
<title>BrowserModule&#45;&gt;AppModule</title>
<path fill="none" stroke="black" d="M1067,-122.3C1067,-140.27 1067,-165 1067,-165 1067,-165 2862.93,-165 2862.93,-165"/>
<polygon fill="black" stroke="black" points="2862.93,-168.5 2872.93,-165 2862.93,-161.5 2862.93,-168.5"/>
</g>
<!-- BrowserAnimationsModule -->
<g id="node18" class="node">
<title>BrowserAnimationsModule</title>
<polygon fill="#8dd3c7" stroke="black" points="995.3,-122 992.3,-126 971.3,-126 968.3,-122 822.7,-122 822.7,-86 995.3,-86 995.3,-122"/>
<text text-anchor="middle" x="909" y="-99.8" font-family="Times,serif" font-size="14.00">BrowserAnimationsModule</text>
</g>
<!-- BrowserAnimationsModule&#45;&gt;AppModule -->
<g id="edge17" class="edge">
<title>BrowserAnimationsModule&#45;&gt;AppModule</title>
<path fill="none" stroke="black" d="M909,-122.17C909,-141.09 909,-168 909,-168 909,-168 2863.1,-168 2863.1,-168"/>
<polygon fill="black" stroke="black" points="2863.1,-171.5 2873.1,-168 2863.1,-164.5 2863.1,-171.5"/>
</g>
<!-- HttpClientModule -->
<g id="node19" class="node">
<title>HttpClientModule</title>
<polygon fill="#8dd3c7" stroke="black" points="805.16,-122 802.16,-126 781.16,-126 778.16,-122 686.84,-122 686.84,-86 805.16,-86 805.16,-122"/>
<text text-anchor="middle" x="746" y="-99.8" font-family="Times,serif" font-size="14.00">HttpClientModule</text>
</g>
<!-- HttpClientModule&#45;&gt;AppModule -->
<g id="edge18" class="edge">
<title>HttpClientModule&#45;&gt;AppModule</title>
<path fill="none" stroke="black" d="M746,-122.31C746,-142.15 746,-171 746,-171 746,-171 2863.13,-171 2863.13,-171"/>
<polygon fill="black" stroke="black" points="2863.13,-174.5 2873.13,-171 2863.13,-167.5 2863.13,-174.5"/>
</g>
<!-- FormsModule -->
<g id="node20" class="node">
<title>FormsModule</title>
<polygon fill="#8dd3c7" stroke="black" points="668.83,-122 665.83,-126 644.83,-126 641.83,-122 573.17,-122 573.17,-86 668.83,-86 668.83,-122"/>
<text text-anchor="middle" x="621" y="-99.8" font-family="Times,serif" font-size="14.00">FormsModule</text>
</g>
<!-- FormsModule&#45;&gt;AppModule -->
<g id="edge19" class="edge">
<title>FormsModule&#45;&gt;AppModule</title>
<path fill="none" stroke="black" d="M621,-122.03C621,-142.77 621,-174 621,-174 621,-174 2863.23,-174 2863.23,-174"/>
<polygon fill="black" stroke="black" points="2863.23,-177.5 2873.23,-174 2863.23,-170.5 2863.23,-177.5"/>
</g>
<!-- DragDropModule -->
<g id="node21" class="node">
<title>DragDropModule</title>
<polygon fill="#8dd3c7" stroke="black" points="555.3,-122 552.3,-126 531.3,-126 528.3,-122 438.7,-122 438.7,-86 555.3,-86 555.3,-122"/>
<text text-anchor="middle" x="497" y="-99.8" font-family="Times,serif" font-size="14.00">DragDropModule</text>
</g>
<!-- DragDropModule&#45;&gt;AppModule -->
<g id="edge20" class="edge">
<title>DragDropModule&#45;&gt;AppModule</title>
<path fill="none" stroke="black" d="M497,-122.17C497,-143.5 497,-176 497,-176 497,-176 2863.29,-176 2863.29,-176"/>
<polygon fill="black" stroke="black" points="2863.29,-179.5 2873.29,-176 2863.29,-172.5 2863.29,-179.5"/>
</g>
<!-- AppRoutingModule -->
<g id="node22" class="node">
<title>AppRoutingModule</title>
<polygon fill="#8dd3c7" stroke="black" points="420.27,-122 417.27,-126 396.27,-126 393.27,-122 291.73,-122 291.73,-86 420.27,-86 420.27,-122"/>
<text text-anchor="middle" x="356" y="-99.8" font-family="Times,serif" font-size="14.00">AppRoutingModule</text>
</g>
<!-- AppRoutingModule&#45;&gt;AppModule -->
<g id="edge21" class="edge">
<title>AppRoutingModule&#45;&gt;AppModule</title>
<path fill="none" stroke="black" d="M356,-122.16C356,-144.35 356,-179 356,-179 356,-179 2863.24,-179 2863.24,-179"/>
<polygon fill="black" stroke="black" points="2863.24,-182.5 2873.24,-179 2863.24,-175.5 2863.24,-182.5"/>
</g>
<!-- PrimengModule -->
<g id="node23" class="node">
<title>PrimengModule</title>
<polygon fill="#8dd3c7" stroke="black" points="273.49,-122 270.49,-126 249.49,-126 246.49,-122 166.51,-122 166.51,-86 273.49,-86 273.49,-122"/>
<text text-anchor="middle" x="220" y="-99.8" font-family="Times,serif" font-size="14.00">PrimengModule</text>
</g>
<!-- PrimengModule&#45;&gt;AppModule -->
<g id="edge22" class="edge">
<title>PrimengModule&#45;&gt;AppModule</title>
<path fill="none" stroke="black" d="M220,-122.09C220,-145.13 220,-182 220,-182 220,-182 2863.21,-182 2863.21,-182"/>
<polygon fill="black" stroke="black" points="2863.21,-185.5 2873.21,-182 2863.21,-178.5 2863.21,-185.5"/>
</g>
<!-- FrameworkModule -->
<g id="node24" class="node">
<title>FrameworkModule</title>
<polygon fill="#8dd3c7" stroke="black" points="148.08,-122 145.08,-126 124.08,-126 121.08,-122 23.92,-122 23.92,-86 148.08,-86 148.08,-122"/>
<text text-anchor="middle" x="86" y="-99.8" font-family="Times,serif" font-size="14.00">FrameworkModule</text>
</g>
<!-- FrameworkModule&#45;&gt;AppModule -->
<g id="edge23" class="edge">
<title>FrameworkModule&#45;&gt;AppModule</title>
<path fill="none" stroke="black" d="M86,-122.38C86,-146.28 86,-185 86,-185 86,-185 2863.09,-185 2863.09,-185"/>
<polygon fill="black" stroke="black" points="2863.09,-188.5 2873.09,-185 2863.09,-181.5 2863.09,-188.5"/>
</g>
<!-- MessageService -->
<g id="node26" class="node">
<title>MessageService</title>
<ellipse fill="#fdb462" stroke="black" cx="2486" cy="-104" rx="73.55" ry="18"/>
<text text-anchor="middle" x="2486" y="-99.8" font-family="Times,serif" font-size="14.00">MessageService</text>
</g>
<!-- MessageService&#45;&gt;AppModule -->
<g id="edge25" class="edge">
<title>MessageService&#45;&gt;AppModule</title>
<path fill="none" stroke="black" d="M2486,-122.24C2486,-137.57 2486,-157 2486,-157 2486,-157 2863.08,-157 2863.08,-157"/>
<polygon fill="black" stroke="black" points="2863.08,-160.5 2873.08,-157 2863.08,-153.5 2863.08,-160.5"/>
</g>
<!-- { provide: ErrorHandler, useClass: GlobalErrorHandler } -->
<g id="node27" class="node">
<title>{ provide: ErrorHandler, useClass: GlobalErrorHandler }</title>
<ellipse fill="#fdb462" stroke="black" cx="2162" cy="-104" rx="232.85" ry="18"/>
<text text-anchor="middle" x="2162" y="-99.8" font-family="Times,serif" font-size="14.00">{ provide: ErrorHandler, useClass: GlobalErrorHandler }</text>
</g>
<!-- { provide: ErrorHandler, useClass: GlobalErrorHandler }&#45;&gt;AppModule -->
<g id="edge26" class="edge">
<title>{ provide: ErrorHandler, useClass: GlobalErrorHandler }&#45;&gt;AppModule</title>
<path fill="none" stroke="black" d="M2162,-122.03C2162,-138.4 2162,-160 2162,-160 2162,-160 2863.17,-160 2863.17,-160"/>
<polygon fill="black" stroke="black" points="2863.17,-163.5 2873.17,-160 2863.17,-156.5 2863.17,-163.5"/>
</g>
<!-- { provide: DOMAIN_CONFIG, useFactory: createAutomobileDomainConfig, deps: [Injector] } -->
<g id="node28" class="node">
<title>{ provide: DOMAIN_CONFIG, useFactory: createAutomobileDomainConfig, deps: [Injector] }</title>
<ellipse fill="#fdb462" stroke="black" cx="1528" cy="-104" rx="383.85" ry="18"/>
<text text-anchor="middle" x="1528" y="-99.8" font-family="Times,serif" font-size="14.00">{ provide: DOMAIN_CONFIG, useFactory: createAutomobileDomainConfig, deps: [Injector] }</text>
</g>
<!-- { provide: DOMAIN_CONFIG, useFactory: createAutomobileDomainConfig, deps: [Injector] }&#45;&gt;AppModule -->
<g id="edge27" class="edge">
<title>{ provide: DOMAIN_CONFIG, useFactory: createAutomobileDomainConfig, deps: [Injector] }&#45;&gt;AppModule</title>
<path fill="none" stroke="black" d="M1528,-122.02C1528,-139.37 1528,-163 1528,-163 1528,-163 2863.11,-163 2863.11,-163"/>
<polygon fill="black" stroke="black" points="2863.11,-166.5 2873.11,-163 2863.11,-159.5 2863.11,-166.5"/>
</g>
</g>
</svg>
