<?xml version="1.0" encoding="UTF-8" standalone="no"?>
<!DOCTYPE svg PUBLIC "-//W3C//DTD SVG 1.1//EN"
 "http://www.w3.org/Graphics/SVG/1.1/DTD/svg11.dtd">
<!-- Generated by graphviz version 2.47.0 (20210316.0004)
 -->
<!-- Title: dependencies Pages: 1 -->
<svg width="504pt" height="284pt"
 viewBox="0.00 0.00 504.00 284.00" xmlns="http://www.w3.org/2000/svg" xmlns:xlink="http://www.w3.org/1999/xlink">
<g id="graph0" class="graph" transform="scale(1 1) rotate(0) translate(4 280)">
<title>dependencies</title>
<polygon fill="white" stroke="transparent" points="-4,4 -4,-280 500,-280 500,4 -4,4"/>
<text text-anchor="start" x="227.01" y="-42.4" font-family="Times-12" font-weight="bold" font-size="14.00">Legend</text>
<polygon fill="#ffffb3" stroke="transparent" points="14,-10 14,-30 34,-30 34,-10 14,-10"/>
<text text-anchor="start" x="37.63" y="-15.4" font-family="Times-12" font-size="14.00"> &#160;Declarations</text>
<polygon fill="#8dd3c7" stroke="transparent" points="127,-10 127,-30 147,-30 147,-10 127,-10"/>
<text text-anchor="start" x="150.73" y="-15.4" font-family="Times-12" font-size="14.00"> &#160;Module</text>
<polygon fill="#80b1d3" stroke="transparent" points="213,-10 213,-30 233,-30 233,-10 213,-10"/>
<text text-anchor="start" x="236.78" y="-15.4" font-family="Times-12" font-size="14.00"> &#160;Bootstrap</text>
<polygon fill="#fdb462" stroke="transparent" points="310,-10 310,-30 330,-30 330,-10 310,-10"/>
<text text-anchor="start" x="333.67" y="-15.4" font-family="Times-12" font-size="14.00"> &#160;Providers</text>
<polygon fill="#fb8072" stroke="transparent" points="406,-10 406,-30 426,-30 426,-10 406,-10"/>
<text text-anchor="start" x="429.73" y="-15.4" font-family="Times-12" font-size="14.00"> &#160;Exports</text>
<g id="clust1" class="cluster">
<title>cluster_PrimengModule</title>
<polygon fill="none" stroke="black" stroke-dasharray="1,5" points="85,-70 85,-268 411,-268 411,-70 85,-70"/>
</g>
<g id="clust4" class="cluster">
<title>cluster_PrimengModule_exports</title>
<polygon fill="none" stroke="black" points="156,-208 156,-260 340,-260 340,-208 156,-208"/>
</g>
<g id="clust3" class="cluster">
<title>cluster_PrimengModule_imports</title>
<polygon fill="none" stroke="black" points="93,-78 93,-130 403,-130 403,-78 93,-78"/>
</g>
<!-- CommonModule -->
<g id="node1" class="node">
<title>CommonModule</title>
<polygon fill="#8dd3c7" stroke="black" points="394.67,-122 391.67,-126 370.67,-126 367.67,-122 283.33,-122 283.33,-86 394.67,-86 394.67,-122"/>
<text text-anchor="middle" x="339" y="-99.8" font-family="Times,serif" font-size="14.00">CommonModule</text>
</g>
<!-- PrimengModule -->
<g id="node3" class="node">
<title>PrimengModule</title>
<polygon fill="#8dd3c7" stroke="black" points="301.49,-187 298.49,-191 277.49,-191 274.49,-187 194.51,-187 194.51,-151 301.49,-151 301.49,-187"/>
<text text-anchor="middle" x="248" y="-164.8" font-family="Times,serif" font-size="14.00">PrimengModule</text>
</g>
<!-- CommonModule&#45;&gt;PrimengModule -->
<g id="edge1" class="edge">
<title>CommonModule&#45;&gt;PrimengModule</title>
<path fill="none" stroke="black" d="M292.33,-122.11C292.33,-122.11 292.33,-140.99 292.33,-140.99"/>
<polygon fill="black" stroke="black" points="288.83,-140.99 292.33,-150.99 295.83,-140.99 288.83,-140.99"/>
</g>
<!-- ...PRIMENG_MODULES -->
<g id="node2" class="node">
<title>...PRIMENG_MODULES</title>
<polygon fill="#8dd3c7" stroke="black" points="265.14,-122 262.14,-126 241.14,-126 238.14,-122 100.86,-122 100.86,-86 265.14,-86 265.14,-122"/>
<text text-anchor="middle" x="183" y="-99.8" font-family="Times,serif" font-size="14.00">...PRIMENG_MODULES</text>
</g>
<!-- ...PRIMENG_MODULES&#45;&gt;PrimengModule -->
<g id="edge2" class="edge">
<title>...PRIMENG_MODULES&#45;&gt;PrimengModule</title>
<path fill="none" stroke="black" d="M229.79,-122.11C229.79,-122.11 229.79,-140.99 229.79,-140.99"/>
<polygon fill="black" stroke="black" points="226.29,-140.99 229.79,-150.99 233.29,-140.99 226.29,-140.99"/>
</g>
<!-- ...PRIMENG_MODULES  -->
<g id="node4" class="node">
<title>...PRIMENG_MODULES </title>
<polygon fill="#fb8072" stroke="black" points="331.64,-252 164.36,-252 164.36,-216 331.64,-216 331.64,-252"/>
<text text-anchor="middle" x="248" y="-229.8" font-family="Times,serif" font-size="14.00">...PRIMENG_MODULES </text>
</g>
<!-- PrimengModule&#45;&gt;...PRIMENG_MODULES  -->
<g id="edge3" class="edge">
<title>PrimengModule&#45;&gt;...PRIMENG_MODULES </title>
<path fill="none" stroke="black" stroke-dasharray="5,2" d="M248,-187.11C248,-187.11 248,-205.99 248,-205.99"/>
<polygon fill="black" stroke="black" points="244.5,-205.99 248,-215.99 251.5,-205.99 244.5,-205.99"/>
</g>
</g>
</svg>
